<svg id="svg" version="1.1" xmlns="http://www.w3.org/2000/svg" xmlns:xlink="http://www.w3.org/1999/xlink" width="400" height="400" viewBox="0, 0, 400,400"><g id="svgg"><path id="path0" d="M194.291 66.432 C 194.268 66.454,193.275 66.516,192.083 66.570 C 190.892 66.624,189.729 66.700,189.500 66.740 C 189.271 66.780,188.558 66.850,187.917 66.895 C 185.928 67.035,179.841 67.879,179.083 68.120 C 178.900 68.178,178.637 68.242,178.500 68.262 C 178.362 68.282,177.920 68.346,177.518 68.404 C 177.115 68.462,176.717 68.552,176.633 68.604 C 176.549 68.656,176.316 68.721,176.115 68.748 C 175.806 68.790,175.015 68.979,173.250 69.432 C 173.067 69.479,172.750 69.552,172.546 69.594 C 172.342 69.637,171.967 69.752,171.713 69.851 C 171.242 70.033,170.910 70.121,170.167 70.263 C 169.938 70.307,169.637 70.391,169.500 70.449 C 169.362 70.507,169.194 70.570,169.125 70.590 C 169.056 70.609,168.981 70.640,168.958 70.659 C 168.935 70.677,168.804 70.718,168.667 70.751 C 167.964 70.915,162.460 72.713,161.667 73.037 C 161.162 73.243,160.712 73.419,160.667 73.428 C 160.152 73.527,159.402 73.800,158.551 74.199 C 157.983 74.465,157.367 74.711,157.182 74.747 C 156.824 74.816,155.889 75.198,155.111 75.594 C 154.852 75.725,154.576 75.833,154.497 75.833 C 154.419 75.833,154.144 75.920,153.886 76.025 C 153.628 76.131,153.297 76.241,153.150 76.271 C 153.004 76.300,152.534 76.473,152.106 76.657 C 151.679 76.840,151.274 77.000,151.206 77.011 C 151.139 77.023,150.933 77.116,150.750 77.217 C 150.567 77.318,150.342 77.416,150.250 77.434 C 150.158 77.452,149.896 77.540,149.667 77.630 C 149.438 77.720,149.212 77.799,149.167 77.805 C 149.121 77.811,148.596 78.034,148.000 78.299 C 146.765 78.850,146.253 79.045,146.243 78.969 C 146.239 78.940,146.032 79.050,145.784 79.212 C 145.536 79.375,145.333 79.464,145.333 79.411 C 145.333 79.358,145.127 79.425,144.875 79.559 C 144.431 79.796,143.380 80.223,143.125 80.269 C 143.056 80.281,142.962 80.310,142.917 80.333 C 142.871 80.356,142.777 80.389,142.708 80.407 C 141.903 80.610,141.167 80.919,141.167 81.054 C 141.167 81.147,141.117 81.173,141.057 81.113 C 140.997 81.052,140.847 81.086,140.724 81.189 C 140.601 81.291,140.500 81.334,140.500 81.285 C 140.500 81.236,139.994 81.387,139.375 81.620 C 138.756 81.854,137.800 82.190,137.250 82.369 C 136.700 82.548,136.137 82.737,136.000 82.791 C 135.862 82.844,135.712 82.901,135.667 82.917 C 135.621 82.933,135.433 83.002,135.250 83.072 C 134.359 83.409,134.054 83.511,133.708 83.586 C 133.502 83.630,133.165 83.708,132.958 83.759 C 132.752 83.809,132.401 83.888,132.178 83.934 C 131.956 83.980,131.712 84.055,131.637 84.101 C 131.477 84.200,130.948 84.322,130.250 84.419 C 129.975 84.458,129.112 84.635,128.333 84.813 C 127.554 84.991,126.429 85.223,125.833 85.328 C 124.707 85.526,124.466 85.565,123.083 85.766 C 122.625 85.833,122.138 85.908,122.000 85.933 C 119.585 86.372,112.568 86.559,110.000 86.252 C 109.496 86.192,108.521 86.078,107.833 85.999 C 106.307 85.823,105.391 85.697,104.083 85.482 C 103.533 85.392,102.858 85.287,102.583 85.249 C 102.308 85.212,101.371 85.055,100.500 84.901 C 99.629 84.748,98.654 84.595,98.333 84.562 C 98.013 84.529,97.150 84.422,96.417 84.324 C 93.287 83.906,91.861 84.737,92.241 86.759 C 92.300 87.074,92.345 87.369,92.340 87.415 C 92.277 88.125,93.942 89.859,94.571 89.741 C 94.917 89.676,95.961 89.892,97.751 90.398 C 106.937 92.992,115.686 94.427,125.917 95.017 C 128.560 95.170,137.540 95.111,140.333 94.923 C 147.644 94.431,154.680 93.462,162.884 91.817 C 166.091 91.174,168.567 90.642,179.000 88.353 C 186.552 86.697,195.248 85.065,199.560 84.497 C 200.215 84.411,201.612 84.223,202.667 84.080 C 204.930 83.774,207.309 83.537,209.500 83.399 C 210.371 83.344,211.132 83.270,211.192 83.233 C 211.768 82.882,223.296 83.061,228.167 83.497 C 231.802 83.822,232.770 83.966,237.307 84.854 L 240.032 85.387 240.708 84.595 C 241.327 83.871,241.436 83.810,241.984 83.882 C 242.314 83.925,243.757 84.129,245.192 84.336 C 248.356 84.791,248.460 84.772,249.000 83.631 C 249.270 83.060,249.591 82.662,249.911 82.500 C 250.537 82.183,250.846 81.902,250.714 81.770 C 250.658 81.713,250.699 81.667,250.806 81.667 C 250.912 81.667,251.000 81.517,251.000 81.333 C 251.000 81.150,251.079 81.000,251.177 81.000 C 251.274 81.000,251.307 80.925,251.250 80.833 C 251.193 80.742,251.208 80.667,251.283 80.667 C 251.435 80.667,251.928 79.653,251.871 79.458 C 251.850 79.390,251.921 79.333,252.028 79.333 C 252.135 79.333,252.175 79.286,252.117 79.228 C 252.059 79.170,252.100 78.964,252.208 78.770 C 252.316 78.576,252.388 78.360,252.369 78.292 C 252.349 78.223,252.396 78.167,252.472 78.167 C 252.549 78.167,252.624 78.054,252.639 77.917 C 252.654 77.779,252.679 77.557,252.694 77.424 C 252.710 77.290,252.830 77.140,252.962 77.089 C 253.093 77.039,253.159 76.887,253.108 76.753 C 253.056 76.619,253.122 76.402,253.254 76.269 C 253.387 76.137,253.515 75.783,253.539 75.483 C 253.631 74.352,252.412 74.195,246.667 74.597 L 245.250 74.696 243.917 73.823 C 242.309 72.770,241.697 72.500,240.923 72.500 L 240.335 72.500 240.447 73.125 C 240.509 73.469,240.548 74.200,240.535 74.750 C 240.521 75.300,240.511 76.376,240.512 77.141 L 240.514 78.533 240.039 78.195 C 239.778 78.008,239.195 77.551,238.743 77.178 C 238.292 76.805,237.828 76.500,237.711 76.500 C 237.595 76.500,237.500 76.425,237.500 76.333 C 237.500 76.242,237.394 76.167,237.264 76.167 C 237.134 76.167,237.003 76.105,236.972 76.030 C 236.890 75.828,233.812 74.000,233.555 74.000 C 233.433 74.000,233.333 73.925,233.333 73.833 C 233.333 73.742,233.277 73.681,233.208 73.699 C 233.140 73.718,232.466 73.417,231.711 73.032 C 230.956 72.647,230.206 72.309,230.044 72.282 C 229.882 72.254,229.384 72.067,228.937 71.866 C 228.490 71.665,228.036 71.500,227.929 71.500 C 227.821 71.500,227.662 71.437,227.575 71.359 C 227.344 71.153,221.919 69.324,221.333 69.255 C 221.196 69.239,220.933 69.177,220.750 69.119 C 220.567 69.060,220.192 68.973,219.917 68.924 C 218.921 68.750,218.576 68.668,218.167 68.510 C 217.938 68.421,216.737 68.199,215.500 68.015 C 213.107 67.661,212.236 67.524,211.833 67.438 C 211.574 67.383,209.858 67.197,208.827 67.112 C 208.503 67.085,208.166 67.021,208.077 66.969 C 207.989 66.917,206.717 66.825,205.250 66.765 C 203.783 66.705,202.133 66.618,201.583 66.570 C 200.527 66.480,194.360 66.362,194.291 66.432 " stroke="none" fill="#575b07" fill-rule="evenodd"></path><path id="path1" d="M212.500 83.179 C 208.686 83.406,205.457 83.702,202.667 84.080 C 201.612 84.223,200.215 84.411,199.560 84.497 C 195.248 85.065,186.552 86.697,179.000 88.353 C 168.567 90.642,166.091 91.174,162.884 91.817 C 154.680 93.462,147.644 94.431,140.333 94.923 C 126.614 95.847,111.286 94.221,97.790 90.409 C 95.094 89.647,94.587 89.558,94.428 89.815 C 94.335 89.965,95.355 90.833,95.624 90.833 C 95.705 90.833,95.916 90.968,96.094 91.133 C 96.589 91.593,98.460 92.833,98.658 92.833 C 98.754 92.833,98.833 92.913,98.833 93.010 C 98.833 93.107,98.902 93.144,98.986 93.092 C 99.070 93.040,99.163 93.056,99.194 93.127 C 99.291 93.350,100.887 94.441,101.583 94.760 C 101.950 94.928,102.287 95.112,102.333 95.168 C 102.481 95.349,104.648 96.852,104.785 96.868 C 104.857 96.877,105.179 97.043,105.500 97.239 C 105.821 97.434,106.233 97.684,106.417 97.795 C 106.600 97.906,107.987 98.623,109.500 99.388 C 111.013 100.154,112.737 101.036,113.333 101.350 C 113.929 101.663,114.754 102.059,115.167 102.230 C 115.579 102.401,116.367 102.748,116.917 103.002 C 118.646 103.800,119.128 104.000,119.319 104.000 C 119.421 104.000,119.635 104.071,119.794 104.159 C 119.953 104.246,120.383 104.441,120.750 104.592 C 121.117 104.744,121.567 104.931,121.750 105.008 C 123.122 105.588,126.859 106.922,128.000 107.239 C 128.137 107.277,128.569 107.423,128.958 107.563 C 129.348 107.704,129.667 107.775,129.667 107.722 C 129.667 107.669,129.779 107.719,129.917 107.833 C 130.054 107.947,130.167 107.995,130.167 107.938 C 130.167 107.882,130.448 107.938,130.792 108.064 C 132.806 108.797,133.929 109.035,134.555 108.863 C 135.026 108.732,135.378 108.746,135.966 108.919 C 139.270 109.885,147.070 111.343,151.917 111.901 C 157.566 112.552,158.177 112.583,165.083 112.583 C 185.544 112.583,205.433 107.454,222.599 97.749 C 229.215 94.009,236.553 88.865,239.361 85.999 L 239.972 85.375 238.611 85.091 C 236.268 84.601,233.805 84.172,232.333 83.998 C 231.554 83.905,230.500 83.756,229.990 83.665 C 229.480 83.574,228.647 83.500,228.138 83.500 C 227.629 83.500,226.808 83.421,226.314 83.324 C 225.221 83.111,215.385 83.007,212.500 83.179 " stroke="none" fill="#8ba304" fill-rule="evenodd"></path><path id="path2" d="M250.298 82.569 C 250.143 82.682,249.814 83.182,249.569 83.679 C 248.924 84.984,248.722 85.167,247.933 85.165 C 247.016 85.164,243.631 84.733,242.540 84.479 L 241.664 84.275 240.040 85.875 C 238.497 87.395,237.956 87.862,235.596 89.709 C 227.373 96.141,215.510 102.498,204.600 106.316 C 194.958 109.690,183.167 112.180,174.083 112.758 C 173.350 112.805,172.563 112.879,172.333 112.923 C 171.426 113.096,162.174 113.150,159.544 112.997 C 151.775 112.548,144.555 111.457,136.946 109.585 C 134.300 108.934,134.237 108.943,133.180 110.106 C 132.775 110.552,132.363 110.920,132.263 110.924 C 132.164 110.928,132.102 111.022,132.125 111.133 C 132.148 111.243,132.092 111.333,132.000 111.333 C 131.908 111.333,131.833 111.446,131.833 111.583 C 131.833 111.721,131.753 111.833,131.655 111.833 C 131.444 111.833,131.000 112.250,131.000 112.448 C 131.000 112.524,130.739 112.811,130.420 113.085 C 130.101 113.359,129.839 113.682,129.837 113.802 C 129.835 113.921,129.758 113.973,129.667 113.917 C 129.575 113.860,129.499 113.949,129.497 114.115 C 129.496 114.328,129.456 114.355,129.363 114.209 C 129.273 114.068,129.138 114.210,128.945 114.648 C 128.761 115.064,128.557 115.287,128.371 115.273 C 128.213 115.260,128.102 115.344,128.125 115.458 C 128.148 115.573,128.087 115.667,127.990 115.667 C 127.893 115.667,127.861 115.744,127.919 115.837 C 127.977 115.931,127.963 115.988,127.887 115.962 C 127.812 115.937,127.581 116.085,127.375 116.292 C 127.169 116.498,127.050 116.667,127.111 116.667 C 127.172 116.667,126.928 116.934,126.569 117.261 C 126.210 117.589,126.029 117.808,126.167 117.749 C 126.304 117.691,126.207 117.822,125.950 118.042 C 125.694 118.262,125.472 118.594,125.458 118.780 C 125.444 118.972,125.321 119.111,125.175 119.101 C 125.027 119.091,124.926 119.206,124.939 119.370 C 124.951 119.528,124.820 119.701,124.647 119.756 C 124.475 119.811,124.333 119.968,124.333 120.104 C 124.333 120.241,124.258 120.307,124.167 120.250 C 124.075 120.193,124.000 120.246,124.000 120.367 C 124.000 120.488,123.847 120.682,123.660 120.799 C 123.473 120.915,123.360 121.075,123.408 121.153 C 123.457 121.232,123.385 121.388,123.248 121.502 C 123.112 121.615,123.000 121.815,123.000 121.947 C 123.000 122.079,122.925 122.140,122.833 122.083 C 122.742 122.027,122.667 122.060,122.667 122.158 C 122.667 122.256,122.479 122.499,122.250 122.698 C 122.021 122.897,121.833 123.115,121.833 123.182 C 121.833 123.390,120.948 124.667,120.804 124.667 C 120.728 124.667,120.667 124.782,120.667 124.922 C 120.667 125.062,120.554 125.220,120.417 125.273 C 120.279 125.326,120.167 125.478,120.167 125.611 C 120.167 125.823,119.470 126.825,118.879 127.462 C 118.767 127.583,118.552 127.941,118.403 128.256 C 118.253 128.572,118.068 128.792,117.993 128.746 C 117.918 128.699,117.802 128.749,117.736 128.856 C 117.660 128.978,117.687 129.007,117.808 128.933 C 117.913 128.867,118.000 128.893,118.000 128.990 C 118.000 129.087,117.925 129.167,117.833 129.167 C 117.742 129.167,117.667 129.279,117.667 129.417 C 117.667 129.554,117.592 129.667,117.500 129.667 C 117.408 129.667,117.333 129.749,117.333 129.849 C 117.333 130.118,116.728 130.839,116.605 130.717 C 116.547 130.659,116.500 130.811,116.500 131.056 C 116.500 131.347,116.411 131.500,116.240 131.500 C 116.097 131.500,116.023 131.570,116.076 131.655 C 116.129 131.740,116.095 131.858,116.000 131.917 C 115.905 131.975,115.871 132.093,115.924 132.178 C 115.977 132.264,115.884 132.334,115.718 132.336 C 115.463 132.338,115.455 132.363,115.667 132.500 C 115.880 132.638,115.874 132.662,115.625 132.664 C 115.330 132.667,115.273 132.809,115.322 133.417 C 115.344 133.694,115.319 133.708,115.177 133.500 C 115.009 133.255,114.915 133.427,114.977 133.865 C 114.986 133.928,114.844 134.027,114.661 134.085 C 114.478 134.143,114.368 134.254,114.416 134.332 C 114.464 134.410,114.398 134.578,114.271 134.706 C 114.143 134.834,113.893 135.254,113.717 135.639 C 113.540 136.024,113.332 136.282,113.254 136.212 C 113.177 136.141,113.170 136.182,113.240 136.303 C 113.317 136.435,113.245 136.621,113.058 136.773 C 112.889 136.912,112.851 136.973,112.975 136.909 C 113.156 136.816,113.163 136.862,113.011 137.147 C 112.907 137.341,112.782 137.500,112.734 137.500 C 112.686 137.500,112.701 137.413,112.766 137.308 C 112.842 137.185,112.811 137.161,112.681 137.241 C 112.569 137.310,112.517 137.406,112.565 137.454 C 112.672 137.561,112.050 138.807,111.731 139.126 C 111.604 139.253,111.500 139.464,111.500 139.595 C 111.500 139.726,111.427 139.833,111.339 139.833 C 111.250 139.833,111.220 139.946,111.273 140.083 C 111.327 140.225,111.277 140.333,111.157 140.333 C 111.040 140.333,110.994 140.383,111.054 140.443 C 111.115 140.504,111.014 140.659,110.829 140.788 C 110.645 140.917,110.538 141.093,110.590 141.178 C 110.643 141.263,110.594 141.333,110.482 141.333 C 110.370 141.333,110.322 141.377,110.375 141.431 C 110.515 141.570,110.166 142.500,109.974 142.500 C 109.886 142.500,109.860 142.576,109.917 142.668 C 109.974 142.760,109.904 142.881,109.762 142.935 C 109.619 142.990,109.540 143.096,109.586 143.171 C 109.632 143.245,109.560 143.416,109.426 143.550 C 109.292 143.684,109.225 143.836,109.276 143.887 C 109.328 143.939,109.193 144.229,108.977 144.532 C 108.761 144.835,108.580 145.233,108.576 145.417 C 108.572 145.600,108.472 145.729,108.355 145.704 C 108.238 145.679,108.189 145.735,108.247 145.829 C 108.306 145.923,108.269 146.000,108.167 146.000 C 108.064 146.000,108.020 146.064,108.068 146.142 C 108.116 146.220,108.048 146.427,107.917 146.600 C 107.785 146.774,107.675 147.090,107.672 147.302 C 107.669 147.552,107.599 147.644,107.472 147.566 C 107.340 147.484,107.312 147.537,107.386 147.729 C 107.453 147.904,107.400 148.049,107.248 148.107 C 107.113 148.159,107.043 148.269,107.094 148.351 C 107.145 148.433,107.120 148.500,107.040 148.500 C 106.959 148.500,106.792 148.872,106.669 149.326 C 106.545 149.781,106.345 150.190,106.225 150.237 C 106.104 150.283,106.050 150.436,106.104 150.577 C 106.158 150.718,106.119 150.833,106.018 150.833 C 105.916 150.833,105.833 150.983,105.833 151.167 C 105.833 151.350,105.746 151.500,105.639 151.500 C 105.532 151.500,105.491 151.547,105.549 151.604 C 105.606 151.662,105.554 151.906,105.433 152.146 C 105.312 152.387,105.249 152.688,105.294 152.815 C 105.340 152.942,105.309 153.005,105.227 152.954 C 105.145 152.903,104.992 153.043,104.888 153.264 C 104.776 153.501,104.767 153.624,104.866 153.563 C 104.965 153.502,104.958 153.599,104.849 153.804 C 104.748 153.993,104.594 154.192,104.506 154.246 C 104.419 154.300,104.387 154.447,104.435 154.572 C 104.483 154.697,104.441 154.850,104.342 154.911 C 104.243 154.973,104.204 155.093,104.257 155.178 C 104.310 155.264,104.269 155.333,104.167 155.333 C 104.064 155.333,104.027 155.408,104.083 155.500 C 104.140 155.592,104.106 155.667,104.007 155.667 C 103.899 155.667,103.863 155.879,103.917 156.208 C 103.974 156.557,103.953 156.669,103.857 156.524 C 103.673 156.244,103.535 156.459,103.578 156.958 C 103.596 157.165,103.564 157.333,103.508 157.333 C 103.451 157.333,103.392 157.491,103.378 157.683 C 103.363 157.876,103.216 158.136,103.051 158.261 C 102.885 158.387,102.825 158.493,102.917 158.497 C 103.008 158.502,102.997 158.560,102.891 158.628 C 102.786 158.695,102.658 158.975,102.608 159.250 C 102.454 160.095,102.301 160.500,102.137 160.500 C 102.051 160.500,102.029 160.578,102.088 160.674 C 102.147 160.770,102.069 161.041,101.914 161.278 C 101.759 161.514,101.715 161.657,101.816 161.594 C 101.917 161.531,102.000 161.560,102.000 161.657 C 102.000 161.754,101.888 161.833,101.750 161.833 C 101.446 161.833,101.429 162.028,101.708 162.310 C 101.875 162.478,101.851 162.496,101.583 162.400 C 101.400 162.334,101.306 162.342,101.374 162.416 C 101.442 162.491,101.414 162.653,101.311 162.776 C 101.209 162.899,101.182 163.000,101.250 163.000 C 101.318 163.000,101.276 163.118,101.156 163.263 C 100.975 163.480,100.979 163.551,101.177 163.677 C 101.377 163.803,101.371 163.829,101.141 163.831 C 100.940 163.833,100.890 163.932,100.959 164.193 C 101.029 164.462,100.997 164.518,100.831 164.415 C 100.670 164.316,100.639 164.354,100.716 164.556 C 100.775 164.709,100.757 164.833,100.676 164.833 C 100.596 164.833,100.551 164.965,100.577 165.125 C 100.603 165.285,100.552 165.507,100.465 165.617 C 100.298 165.827,100.184 166.362,100.101 167.325 C 100.074 167.641,99.965 167.928,99.859 167.964 C 99.753 167.999,99.667 168.192,99.667 168.393 C 99.667 168.595,99.557 168.916,99.423 169.108 C 99.288 169.299,99.224 169.502,99.280 169.557 C 99.335 169.613,99.276 169.787,99.149 169.945 C 98.988 170.143,98.982 170.192,99.129 170.103 C 99.247 170.032,99.185 170.274,98.990 170.648 C 98.797 171.018,98.687 171.399,98.746 171.494 C 98.805 171.589,98.776 171.667,98.682 171.667 C 98.588 171.667,98.551 171.772,98.600 171.900 C 98.649 172.028,98.613 172.180,98.519 172.238 C 98.425 172.297,98.390 172.454,98.442 172.589 C 98.493 172.723,98.455 172.833,98.356 172.833 C 98.258 172.833,98.218 172.941,98.269 173.072 C 98.319 173.203,98.237 173.568,98.088 173.884 C 97.938 174.200,97.796 174.640,97.772 174.861 C 97.748 175.083,97.673 175.355,97.605 175.465 C 97.536 175.576,97.527 175.742,97.583 175.833 C 97.640 175.925,97.614 176.000,97.525 176.000 C 97.436 176.000,97.384 176.131,97.410 176.292 C 97.436 176.452,97.412 176.658,97.358 176.750 C 97.242 176.946,97.192 177.220,97.138 177.958 C 97.116 178.256,97.034 178.500,96.956 178.500 C 96.878 178.500,96.860 178.575,96.917 178.667 C 96.973 178.758,96.943 178.833,96.848 178.833 C 96.754 178.833,96.721 178.947,96.774 179.085 C 96.827 179.224,96.788 179.437,96.687 179.559 C 96.586 179.681,96.547 179.825,96.601 179.879 C 96.656 179.933,96.638 180.077,96.563 180.197 C 96.376 180.498,96.287 180.968,96.276 181.708 C 96.272 182.052,96.224 182.333,96.170 182.333 C 96.117 182.333,96.050 182.540,96.022 182.792 C 95.919 183.711,95.866 184.083,95.837 184.083 C 95.769 184.083,95.657 184.790,95.646 185.292 C 95.639 185.590,95.561 185.833,95.472 185.833 C 95.383 185.833,95.358 185.983,95.417 186.167 C 95.475 186.350,95.455 186.500,95.372 186.500 C 95.290 186.500,95.234 186.663,95.249 186.863 C 95.264 187.062,95.183 187.625,95.070 188.113 C 94.956 188.601,94.903 189.000,94.952 189.000 C 95.001 189.000,94.938 189.127,94.812 189.282 C 94.625 189.513,94.624 189.539,94.808 189.429 C 94.991 189.319,94.997 189.360,94.842 189.650 C 94.737 189.846,94.697 190.080,94.752 190.170 C 94.808 190.260,94.764 190.333,94.655 190.333 C 94.521 190.333,94.487 190.523,94.551 190.914 C 94.602 191.233,94.578 191.535,94.496 191.586 C 94.414 191.636,94.354 191.881,94.362 192.130 C 94.390 193.021,94.277 193.985,94.153 193.908 C 94.084 193.866,94.048 194.096,94.074 194.420 C 94.100 194.744,94.061 195.046,93.988 195.091 C 93.914 195.136,93.854 195.659,93.854 196.252 C 93.854 196.846,93.794 197.426,93.720 197.541 C 93.646 197.656,93.577 198.095,93.567 198.518 C 93.557 198.940,93.496 199.371,93.432 199.476 C 93.366 199.582,93.411 199.668,93.532 199.669 C 93.702 199.671,93.699 199.704,93.519 199.818 C 93.366 199.915,93.325 200.111,93.397 200.399 C 93.457 200.638,93.449 200.834,93.378 200.835 C 93.308 200.836,93.232 201.633,93.210 202.607 C 93.189 203.587,93.089 204.476,92.988 204.598 C 92.887 204.719,92.861 204.910,92.930 205.021 C 93.082 205.268,93.027 207.067,92.866 207.125 C 92.802 207.147,92.774 207.961,92.803 208.933 C 92.842 210.247,92.806 210.669,92.661 210.580 C 92.517 210.491,92.519 210.557,92.667 210.833 C 92.799 211.081,92.805 211.169,92.683 211.094 C 92.551 211.012,92.500 212.870,92.500 217.750 C 92.500 222.630,92.551 224.488,92.683 224.406 C 92.816 224.324,92.816 224.387,92.683 224.636 C 92.554 224.877,92.552 225.012,92.676 225.089 C 92.782 225.155,92.842 225.801,92.826 226.724 C 92.812 227.563,92.854 228.383,92.920 228.546 C 92.986 228.710,93.007 229.291,92.967 229.838 C 92.928 230.386,92.947 230.833,93.010 230.833 C 93.072 230.833,93.178 231.677,93.244 232.708 C 93.311 233.740,93.442 234.677,93.536 234.792 C 93.655 234.936,93.650 235.000,93.520 235.000 C 93.418 235.000,93.333 235.150,93.333 235.333 C 93.333 235.517,93.413 235.667,93.511 235.667 C 93.613 235.667,93.644 235.809,93.583 236.000 C 93.523 236.191,93.553 236.333,93.655 236.333 C 93.753 236.333,93.833 236.413,93.833 236.510 C 93.833 236.607,93.758 236.640,93.667 236.583 C 93.575 236.527,93.500 236.635,93.500 236.823 C 93.500 237.012,93.565 237.167,93.645 237.167 C 93.725 237.167,93.794 237.673,93.797 238.292 C 93.807 239.873,93.865 240.500,94.010 240.589 C 94.079 240.632,94.096 240.817,94.048 241.001 C 94.000 241.185,94.045 241.436,94.147 241.560 C 94.250 241.683,94.329 241.964,94.323 242.184 C 94.312 242.603,94.457 244.250,94.505 244.250 C 94.521 244.250,94.560 244.569,94.594 244.958 C 94.627 245.347,94.740 245.825,94.844 246.020 C 94.986 246.286,94.986 246.344,94.841 246.255 C 94.714 246.176,94.727 246.324,94.881 246.693 C 95.009 246.999,95.085 247.456,95.051 247.708 C 95.017 247.960,95.056 248.167,95.138 248.167 C 95.220 248.167,95.267 248.354,95.242 248.583 C 95.217 248.813,95.269 249.000,95.359 249.000 C 95.449 249.000,95.475 249.150,95.417 249.333 C 95.358 249.517,95.380 249.667,95.465 249.667 C 95.550 249.667,95.596 249.969,95.568 250.338 C 95.539 250.725,95.584 250.968,95.674 250.912 C 95.759 250.859,95.785 250.933,95.730 251.075 C 95.610 251.389,95.795 252.210,95.963 252.107 C 96.078 252.036,96.167 252.694,96.224 254.042 C 96.238 254.385,96.298 254.667,96.356 254.667 C 96.414 254.667,96.500 254.817,96.548 255.000 C 96.596 255.183,96.569 255.333,96.489 255.333 C 96.405 255.333,96.407 255.506,96.493 255.733 C 96.577 255.953,96.600 256.178,96.545 256.233 C 96.490 256.288,96.579 256.333,96.743 256.333 C 96.989 256.333,97.005 256.377,96.833 256.583 C 96.719 256.721,96.698 256.833,96.785 256.833 C 96.873 256.833,96.948 256.927,96.952 257.042 C 96.956 257.156,97.011 257.587,97.073 258.000 C 97.135 258.412,97.202 258.900,97.223 259.083 C 97.243 259.267,97.325 259.522,97.406 259.651 C 97.512 259.821,97.492 259.848,97.333 259.750 C 97.208 259.673,97.156 259.681,97.211 259.769 C 97.263 259.854,97.356 260.257,97.416 260.665 C 97.477 261.072,97.595 261.534,97.679 261.690 C 97.763 261.847,97.831 262.149,97.830 262.362 C 97.827 263.042,97.885 263.333,98.024 263.333 C 98.098 263.333,98.113 263.558,98.058 263.833 C 97.995 264.152,98.026 264.333,98.146 264.333 C 98.249 264.333,98.318 264.390,98.299 264.458 C 98.220 264.749,98.524 266.338,98.645 266.264 C 98.717 266.219,98.762 266.347,98.745 266.549 C 98.727 266.751,98.815 267.118,98.939 267.364 C 99.063 267.611,99.121 267.926,99.067 268.065 C 99.014 268.204,99.031 268.415,99.106 268.534 C 99.180 268.653,99.256 268.850,99.274 268.971 C 99.293 269.093,99.362 269.318,99.429 269.471 C 99.552 269.755,99.630 270.001,99.713 270.375 C 99.739 270.490,99.810 270.664,99.871 270.762 C 100.033 271.021,100.202 271.844,100.203 272.386 C 100.204 272.673,100.280 272.826,100.398 272.780 C 100.525 272.731,100.589 272.928,100.583 273.353 C 100.578 273.709,100.641 274.000,100.722 274.000 C 100.803 274.000,100.824 274.116,100.770 274.259 C 100.715 274.401,100.736 274.477,100.817 274.427 C 100.944 274.348,101.098 274.914,101.206 275.863 C 101.224 276.016,101.309 276.098,101.395 276.045 C 101.485 275.990,101.512 276.103,101.458 276.308 C 101.398 276.538,101.428 276.628,101.542 276.558 C 101.655 276.488,101.686 276.574,101.629 276.794 C 101.579 276.985,101.667 277.353,101.825 277.612 C 101.982 277.871,102.079 278.180,102.040 278.297 C 102.001 278.415,102.047 278.606,102.142 278.721 C 102.238 278.836,102.361 279.184,102.416 279.494 C 102.470 279.804,102.629 280.141,102.768 280.243 C 102.907 280.345,103.057 280.650,103.100 280.922 C 103.144 281.194,103.199 281.529,103.223 281.667 C 103.247 281.804,103.389 282.162,103.538 282.461 C 103.688 282.761,103.740 282.962,103.654 282.909 C 103.568 282.856,103.586 283.007,103.694 283.244 C 103.837 283.557,103.929 283.617,104.026 283.463 C 104.167 283.241,104.248 283.730,104.188 284.446 C 104.172 284.645,104.236 284.857,104.332 284.916 C 104.427 284.975,104.462 285.093,104.409 285.179 C 104.356 285.265,104.421 285.378,104.554 285.429 C 104.698 285.484,104.762 285.653,104.712 285.844 C 104.666 286.022,104.712 286.167,104.814 286.167 C 104.916 286.167,105.000 286.317,105.000 286.500 C 105.000 286.683,105.079 286.833,105.177 286.833 C 105.274 286.833,105.310 286.903,105.258 286.988 C 105.117 287.215,105.521 288.007,105.715 287.887 C 105.816 287.824,105.850 287.950,105.801 288.208 C 105.747 288.490,105.817 288.701,106.011 288.841 C 106.186 288.967,106.275 289.199,106.235 289.422 C 106.198 289.626,106.275 289.882,106.406 289.991 C 106.538 290.100,106.697 290.424,106.759 290.709 C 106.822 290.995,107.033 291.363,107.228 291.526 C 107.424 291.689,107.492 291.825,107.380 291.828 C 107.269 291.831,107.220 291.945,107.273 292.082 C 107.325 292.219,107.435 292.290,107.516 292.240 C 107.597 292.190,107.619 292.262,107.566 292.401 C 107.510 292.547,107.657 292.838,107.918 293.100 C 108.234 293.416,108.277 293.514,108.062 293.432 C 107.822 293.339,107.842 293.404,108.158 293.741 C 108.381 293.978,108.466 294.167,108.350 294.167 C 108.208 294.167,108.225 294.249,108.405 294.429 C 108.549 294.573,108.667 294.831,108.667 295.002 C 108.667 295.173,108.742 295.360,108.835 295.417 C 109.107 295.586,109.573 296.563,109.305 296.406 C 109.183 296.335,109.222 296.434,109.391 296.628 C 109.561 296.821,109.653 297.054,109.596 297.146 C 109.539 297.238,109.605 297.376,109.742 297.452 C 109.879 297.529,110.013 297.740,110.041 297.923 C 110.069 298.105,110.254 298.565,110.451 298.944 C 110.649 299.323,110.766 299.679,110.711 299.733 C 110.656 299.788,110.699 299.833,110.806 299.833 C 110.912 299.833,110.981 299.901,110.958 299.983 C 110.935 300.066,110.978 300.122,111.053 300.108 C 111.242 300.074,111.539 300.636,111.428 300.816 C 111.378 300.896,111.449 301.055,111.585 301.168 C 111.722 301.281,111.833 301.447,111.833 301.536 C 111.833 301.626,111.998 301.930,112.199 302.213 C 112.401 302.495,112.468 302.667,112.349 302.593 C 112.047 302.406,112.412 303.079,112.852 303.519 C 113.032 303.698,113.134 303.918,113.080 304.006 C 113.025 304.094,113.060 304.167,113.157 304.167 C 113.254 304.167,113.333 304.284,113.333 304.427 C 113.333 304.577,113.412 304.637,113.522 304.570 C 113.634 304.501,113.680 304.543,113.636 304.675 C 113.596 304.796,113.701 305.035,113.871 305.204 C 114.040 305.373,114.127 305.596,114.064 305.698 C 113.994 305.812,114.024 305.838,114.141 305.766 C 114.254 305.696,114.333 305.751,114.333 305.899 C 114.333 306.037,114.465 306.227,114.625 306.320 C 114.785 306.413,114.855 306.492,114.780 306.495 C 114.704 306.498,114.798 306.698,114.988 306.939 C 115.178 307.181,115.333 307.481,115.333 307.606 C 115.333 307.731,115.391 307.833,115.462 307.833 C 115.533 307.833,115.732 308.096,115.905 308.417 C 116.078 308.737,116.288 309.000,116.371 309.000 C 116.667 309.000,117.017 309.465,116.790 309.557 C 116.666 309.607,116.698 309.646,116.869 309.654 C 117.145 309.666,117.646 310.332,117.381 310.334 C 117.309 310.335,117.516 310.503,117.841 310.709 C 118.165 310.915,118.423 311.196,118.413 311.333 C 118.390 311.647,118.984 312.333,119.279 312.333 C 119.401 312.333,119.500 312.440,119.500 312.569 C 119.500 312.699,119.579 312.832,119.676 312.864 C 119.772 312.896,119.871 313.059,119.896 313.225 C 119.920 313.391,120.035 313.585,120.151 313.657 C 120.267 313.729,120.363 313.854,120.364 313.935 C 120.366 314.017,120.434 314.065,120.517 314.042 C 120.599 314.019,120.667 314.136,120.667 314.302 C 120.667 314.583,121.518 315.559,121.678 315.461 C 121.718 315.436,121.731 315.449,121.707 315.488 C 121.604 315.657,122.391 316.301,122.601 316.220 C 122.729 316.171,122.833 316.220,122.833 316.328 C 122.833 316.555,124.431 318.180,124.544 318.067 C 124.585 318.026,124.724 318.121,124.851 318.278 C 125.052 318.526,125.050 318.544,124.833 318.417 C 124.618 318.290,124.615 318.308,124.811 318.550 C 124.936 318.704,125.116 318.781,125.211 318.722 C 125.307 318.663,125.337 318.693,125.278 318.789 C 125.219 318.884,125.296 319.064,125.450 319.189 C 125.691 319.385,125.713 319.381,125.603 319.167 C 125.527 319.018,125.571 319.034,125.712 319.206 C 125.843 319.365,126.010 319.440,126.085 319.372 C 126.159 319.305,126.168 319.340,126.105 319.450 C 125.976 319.675,126.555 320.056,126.742 319.869 C 126.807 319.804,126.836 319.863,126.806 320.000 C 126.770 320.161,126.855 320.232,127.044 320.201 C 127.206 320.173,127.382 320.267,127.437 320.409 C 127.491 320.551,127.637 320.667,127.762 320.667 C 127.886 320.667,128.072 320.823,128.174 321.014 C 128.277 321.205,128.404 321.318,128.457 321.265 C 128.510 321.212,128.805 321.360,129.111 321.593 C 129.418 321.827,129.742 321.973,129.832 321.917 C 129.926 321.860,129.954 321.927,129.897 322.075 C 129.806 322.312,130.089 322.430,130.554 322.349 C 130.630 322.336,130.642 322.405,130.581 322.504 C 130.517 322.608,130.753 322.793,131.152 322.950 C 131.527 323.097,131.833 323.289,131.833 323.376 C 131.833 323.464,131.940 323.495,132.070 323.445 C 132.199 323.395,132.350 323.470,132.404 323.611 C 132.458 323.752,132.612 323.826,132.746 323.775 C 132.880 323.723,133.034 323.754,133.090 323.843 C 133.145 323.932,133.260 323.962,133.345 323.910 C 133.430 323.857,133.500 323.906,133.500 324.018 C 133.500 324.130,133.546 324.176,133.603 324.119 C 133.660 324.062,133.813 324.123,133.944 324.254 C 134.230 324.540,135.443 324.888,135.669 324.749 C 135.757 324.694,135.789 324.756,135.739 324.887 C 135.688 325.017,135.768 325.170,135.916 325.227 C 136.095 325.295,136.149 325.261,136.080 325.123 C 136.022 325.010,136.075 325.036,136.196 325.181 C 136.317 325.327,136.510 325.414,136.625 325.376 C 136.740 325.337,136.833 325.395,136.833 325.504 C 136.833 325.613,136.946 325.659,137.083 325.606 C 137.221 325.554,137.333 325.592,137.333 325.691 C 137.333 325.791,137.483 325.833,137.667 325.785 C 137.850 325.737,138.000 325.763,138.000 325.844 C 138.000 325.924,138.112 325.946,138.250 325.894 C 138.387 325.841,138.500 325.870,138.500 325.959 C 138.500 326.048,138.687 326.085,138.917 326.041 C 139.148 325.997,139.333 326.039,139.333 326.137 C 139.333 326.322,139.523 326.356,140.542 326.357 C 140.885 326.357,141.167 326.436,141.167 326.532 C 141.167 326.640,141.262 326.628,141.417 326.500 C 141.613 326.337,141.667 326.336,141.667 326.497 C 141.667 326.610,141.767 326.664,141.890 326.617 C 142.013 326.569,142.217 326.595,142.343 326.673 C 142.480 326.757,142.671 326.734,142.818 326.615 C 143.015 326.456,143.037 326.462,142.928 326.643 C 142.819 326.823,142.930 326.853,143.475 326.790 C 143.851 326.747,144.130 326.758,144.095 326.814 C 144.060 326.870,144.925 326.907,146.016 326.895 C 147.107 326.883,148.000 326.939,148.000 327.020 C 148.000 327.101,148.112 327.167,148.250 327.167 C 148.387 327.167,148.500 327.079,148.500 326.972 C 148.500 326.865,148.549 326.827,148.610 326.887 C 148.670 326.948,148.834 326.904,148.975 326.790 C 149.116 326.676,149.186 326.658,149.131 326.750 C 148.951 327.051,154.714 326.793,155.250 326.475 C 155.342 326.421,155.660 326.386,155.958 326.397 C 156.256 326.408,156.500 326.359,156.500 326.288 C 156.500 326.218,156.679 326.205,156.898 326.260 C 157.118 326.315,157.345 326.283,157.404 326.187 C 157.463 326.092,157.620 326.057,157.754 326.108 C 157.890 326.160,158.042 326.083,158.100 325.934 C 158.156 325.787,158.274 325.667,158.361 325.667 C 158.448 325.667,158.481 325.729,158.434 325.806 C 158.387 325.882,158.454 325.944,158.583 325.944 C 158.713 325.944,158.773 325.870,158.717 325.779 C 158.655 325.680,158.758 325.652,158.974 325.708 C 159.172 325.760,159.333 325.738,159.333 325.661 C 159.333 325.583,159.483 325.548,159.667 325.583 C 159.850 325.619,160.000 325.586,160.000 325.511 C 160.000 325.397,160.521 325.223,161.250 325.094 C 161.455 325.058,161.963 324.860,162.445 324.631 C 162.643 324.536,163.000 324.458,163.236 324.458 C 163.473 324.458,163.667 324.388,163.667 324.303 C 163.667 324.217,163.742 324.193,163.833 324.250 C 163.925 324.307,164.000 324.261,164.000 324.149 C 164.000 324.036,164.047 323.992,164.105 324.050 C 164.163 324.108,164.369 324.066,164.564 323.958 C 164.758 323.850,165.051 323.759,165.214 323.756 C 165.378 323.753,165.576 323.647,165.654 323.520 C 165.732 323.394,165.879 323.342,165.981 323.405 C 166.083 323.468,166.167 323.443,166.167 323.348 C 166.167 323.254,166.269 323.217,166.395 323.265 C 166.521 323.313,166.671 323.228,166.730 323.076 C 166.788 322.923,166.942 322.839,167.071 322.889 C 167.201 322.939,167.474 322.834,167.679 322.656 C 167.883 322.479,168.157 322.333,168.287 322.333 C 168.417 322.333,168.636 322.221,168.774 322.083 C 168.911 321.946,169.168 321.833,169.345 321.833 C 169.522 321.833,169.667 321.756,169.667 321.661 C 169.667 321.567,169.798 321.442,169.958 321.384 C 170.119 321.326,170.475 321.123,170.750 320.932 C 171.025 320.741,171.269 320.603,171.292 320.626 C 171.315 320.648,171.371 320.657,171.417 320.646 C 171.463 320.634,171.573 320.616,171.661 320.604 C 171.750 320.593,171.969 320.458,172.147 320.305 C 172.326 320.152,172.516 320.071,172.569 320.125 C 172.623 320.178,172.667 320.135,172.667 320.028 C 172.667 319.921,172.771 319.833,172.899 319.833 C 173.027 319.833,173.174 319.722,173.226 319.586 C 173.278 319.450,173.429 319.381,173.562 319.432 C 173.711 319.489,173.846 319.391,173.914 319.176 C 173.974 318.985,174.081 318.864,174.150 318.906 C 174.220 318.949,174.551 318.758,174.887 318.481 C 175.222 318.205,175.574 318.026,175.669 318.085 C 175.764 318.143,175.821 318.096,175.796 317.978 C 175.771 317.861,175.862 317.758,176.000 317.750 C 176.137 317.742,176.229 317.637,176.203 317.518 C 176.177 317.399,176.252 317.336,176.370 317.377 C 176.487 317.418,176.865 317.231,177.208 316.962 C 177.552 316.692,177.833 316.535,177.834 316.611 C 177.834 316.687,178.002 316.555,178.209 316.318 C 178.415 316.080,178.677 315.918,178.792 315.957 C 178.906 315.996,179.045 315.909,179.101 315.765 C 179.156 315.620,179.269 315.543,179.351 315.594 C 179.433 315.645,179.500 315.569,179.500 315.427 C 179.500 315.284,179.556 315.181,179.625 315.198 C 179.834 315.251,181.000 314.480,181.000 314.289 C 181.000 314.191,181.045 314.156,181.100 314.211 C 181.155 314.266,181.415 314.091,181.678 313.822 C 181.940 313.553,182.254 313.333,182.374 313.333 C 182.494 313.333,182.787 313.111,183.025 312.840 C 183.263 312.569,183.499 312.388,183.549 312.438 C 183.599 312.488,183.719 312.381,183.815 312.200 C 183.912 312.019,184.184 311.823,184.419 311.764 C 184.654 311.705,184.802 311.584,184.747 311.495 C 184.692 311.406,184.759 311.333,184.896 311.333 C 185.032 311.333,185.191 311.187,185.247 311.009 C 185.305 310.826,185.448 310.721,185.575 310.770 C 185.698 310.817,185.901 310.719,186.027 310.553 C 186.152 310.386,186.404 310.163,186.586 310.057 C 186.768 309.951,186.898 309.782,186.875 309.682 C 186.852 309.582,186.988 309.500,187.177 309.500 C 187.365 309.500,187.473 309.425,187.416 309.333 C 187.360 309.241,187.505 309.093,187.740 309.004 C 187.975 308.915,188.167 308.715,188.167 308.560 C 188.167 308.405,188.217 308.328,188.279 308.390 C 188.341 308.452,188.536 308.296,188.713 308.043 C 188.938 307.722,189.005 307.684,188.934 307.917 C 188.834 308.245,188.836 308.245,189.083 307.926 C 189.221 307.749,189.333 307.542,189.333 307.468 C 189.333 307.394,189.438 307.333,189.566 307.333 C 189.693 307.333,189.843 307.216,189.898 307.073 C 189.953 306.929,190.054 306.847,190.124 306.890 C 190.193 306.932,190.438 306.715,190.667 306.408 C 190.896 306.100,191.287 305.761,191.536 305.656 C 191.785 305.550,192.085 305.341,192.203 305.190 C 192.397 304.941,192.388 304.939,192.098 305.167 C 191.796 305.404,191.792 305.398,192.009 305.049 C 192.134 304.847,192.269 304.714,192.309 304.753 C 192.407 304.852,193.668 303.838,193.622 303.697 C 193.581 303.571,195.473 301.695,195.557 301.779 C 195.586 301.808,195.791 301.633,196.013 301.389 C 196.235 301.146,196.324 301.000,196.210 301.065 C 196.071 301.145,196.036 301.100,196.103 300.926 C 196.157 300.785,196.258 300.704,196.327 300.746 C 196.397 300.789,196.858 300.449,197.352 299.990 C 197.846 299.531,198.106 299.209,197.929 299.273 C 197.613 299.390,197.613 299.387,197.929 299.057 C 198.106 298.873,198.281 298.747,198.318 298.777 C 198.421 298.858,198.921 298.105,198.870 297.946 C 198.845 297.870,198.902 297.856,198.996 297.914 C 199.090 297.972,199.167 297.936,199.167 297.833 C 199.167 297.731,199.253 297.701,199.359 297.766 C 199.471 297.835,199.507 297.812,199.444 297.711 C 199.385 297.615,199.600 297.336,199.921 297.091 C 200.243 296.846,200.463 296.574,200.409 296.488 C 200.356 296.402,200.434 296.284,200.582 296.227 C 200.731 296.170,200.813 296.021,200.765 295.895 C 200.717 295.769,200.753 295.667,200.845 295.667 C 200.937 295.667,201.307 295.376,201.665 295.021 C 202.024 294.666,202.434 294.330,202.575 294.276 C 202.717 294.222,202.833 294.062,202.833 293.922 C 202.833 293.782,202.908 293.667,203.000 293.667 C 203.092 293.667,203.167 293.586,203.167 293.488 C 203.167 293.273,203.585 292.833,203.789 292.833 C 204.167 292.833,205.000 291.733,204.792 291.509 C 204.677 291.386,204.664 291.329,204.763 291.384 C 205.007 291.520,206.198 290.519,206.059 290.294 C 205.998 290.196,206.025 290.162,206.117 290.220 C 206.210 290.277,206.485 290.101,206.728 289.829 C 206.971 289.556,207.112 289.332,207.043 289.331 C 206.973 289.329,206.992 289.272,207.083 289.204 C 207.414 288.958,208.077 288.116,207.833 288.252 C 207.674 288.340,207.698 288.259,207.901 288.029 C 208.075 287.830,208.289 287.667,208.375 287.667 C 208.701 287.667,209.500 286.969,209.392 286.779 C 209.330 286.671,209.339 286.636,209.411 286.701 C 209.483 286.766,209.788 286.566,210.089 286.256 C 210.390 285.946,210.681 285.736,210.735 285.790 C 210.789 285.845,210.833 285.766,210.833 285.615 C 210.833 285.464,211.020 285.219,211.249 285.069 C 211.477 284.919,211.615 284.717,211.555 284.620 C 211.487 284.511,211.548 284.483,211.714 284.547 C 211.897 284.617,212.155 284.442,212.521 284.000 C 212.816 283.642,213.132 283.395,213.222 283.451 C 213.312 283.507,213.332 283.466,213.266 283.359 C 213.194 283.243,213.301 283.107,213.532 283.019 C 213.918 282.871,214.594 282.225,214.571 282.024 C 214.551 281.842,214.954 281.510,215.063 281.619 C 215.120 281.676,215.167 281.597,215.167 281.444 C 215.167 281.278,215.300 281.167,215.500 281.167 C 215.683 281.167,215.833 281.100,215.833 281.019 C 215.833 280.938,215.991 280.831,216.183 280.781 C 216.406 280.722,216.488 280.615,216.408 280.485 C 216.325 280.351,216.351 280.325,216.485 280.408 C 216.614 280.487,216.722 280.409,216.778 280.195 C 216.831 279.990,216.959 279.892,217.100 279.946 C 217.256 280.006,217.333 279.916,217.333 279.675 C 217.333 279.476,217.403 279.357,217.488 279.410 C 217.574 279.462,217.691 279.428,217.750 279.333 C 217.809 279.239,217.938 279.212,218.037 279.273 C 218.137 279.335,218.173 279.312,218.118 279.222 C 218.062 279.133,218.163 278.934,218.342 278.781 C 218.521 278.628,218.669 278.559,218.672 278.627 C 218.675 278.694,218.753 278.619,218.847 278.458 C 218.940 278.298,219.138 278.167,219.286 278.167 C 219.434 278.167,219.512 278.123,219.458 278.069 C 219.309 277.920,219.990 277.307,220.177 277.423 C 220.267 277.479,220.321 277.437,220.296 277.330 C 220.271 277.223,220.400 277.049,220.583 276.943 C 220.767 276.837,220.978 276.655,221.052 276.538 C 221.126 276.422,221.254 276.368,221.335 276.418 C 221.417 276.468,221.564 276.358,221.663 276.173 C 221.762 275.988,221.931 275.855,222.039 275.877 C 222.146 275.899,222.238 275.775,222.242 275.603 C 222.249 275.342,223.000 274.838,223.000 275.094 C 223.000 275.140,222.831 275.245,222.625 275.328 C 222.373 275.430,222.338 275.482,222.520 275.489 C 222.669 275.495,223.095 275.170,223.467 274.766 C 223.839 274.363,224.178 274.067,224.220 274.109 C 224.262 274.151,224.461 273.956,224.661 273.674 C 224.862 273.393,225.095 273.206,225.179 273.258 C 225.264 273.310,225.333 273.232,225.333 273.083 C 225.333 272.935,225.408 272.860,225.500 272.917 C 225.592 272.973,225.667 272.945,225.667 272.854 C 225.667 272.764,225.817 272.642,226.000 272.583 C 226.183 272.525,226.333 272.375,226.333 272.249 C 226.333 272.123,226.420 271.966,226.526 271.901 C 226.652 271.823,226.677 271.862,226.597 272.016 C 226.530 272.145,226.593 272.104,226.738 271.926 C 226.882 271.749,227.000 271.661,227.000 271.732 C 227.000 271.803,227.294 271.554,227.654 271.180 C 228.013 270.806,228.384 270.500,228.479 270.500 C 228.573 270.500,228.710 270.398,228.783 270.274 C 228.857 270.150,229.082 269.962,229.283 269.856 C 229.485 269.751,229.748 269.458,229.868 269.207 C 229.992 268.948,230.249 268.727,230.462 268.697 C 230.675 268.666,230.946 268.432,231.089 268.155 C 231.228 267.886,231.414 267.667,231.501 267.667 C 231.589 267.667,231.926 267.409,232.251 267.093 C 232.576 266.778,232.988 266.473,233.167 266.416 C 233.347 266.360,233.476 266.236,233.455 266.141 C 233.434 266.046,233.567 265.882,233.750 265.776 C 233.933 265.670,234.131 265.517,234.190 265.437 C 234.248 265.356,234.374 265.339,234.469 265.398 C 234.565 265.457,234.691 265.354,234.749 265.169 C 234.808 264.984,234.963 264.833,235.095 264.833 C 235.226 264.833,235.483 264.683,235.667 264.500 C 235.850 264.317,236.117 264.167,236.260 264.167 C 236.403 264.167,236.473 264.092,236.417 264.000 C 236.322 263.847,236.550 263.759,236.887 263.818 C 236.963 263.831,236.977 263.764,236.918 263.670 C 236.860 263.575,236.929 263.453,237.072 263.398 C 237.215 263.343,237.289 263.229,237.237 263.145 C 237.185 263.061,237.204 263.002,237.279 263.014 C 237.545 263.057,238.167 262.793,238.167 262.637 C 238.167 262.551,238.073 262.534,237.958 262.600 C 237.837 262.670,237.808 262.657,237.889 262.568 C 237.965 262.485,238.097 262.407,238.181 262.396 C 238.265 262.384,238.408 262.366,238.500 262.354 C 238.592 262.343,238.667 262.208,238.667 262.056 C 238.667 261.903,238.717 261.828,238.779 261.890 C 238.841 261.952,239.066 261.839,239.279 261.639 C 239.492 261.439,239.667 261.345,239.667 261.429 C 239.667 261.514,239.836 261.396,240.042 261.166 C 240.248 260.937,240.698 260.619,241.042 260.460 C 241.416 260.288,241.668 260.054,241.669 259.878 C 241.671 259.627,241.696 259.620,241.833 259.833 C 241.941 260.000,241.996 260.014,241.997 259.875 C 241.999 259.760,242.079 259.667,242.175 259.667 C 242.271 259.667,242.539 259.460,242.771 259.208 C 243.004 258.956,243.136 258.862,243.065 259.000 C 242.954 259.215,242.976 259.218,243.216 259.023 C 243.370 258.898,243.472 258.748,243.441 258.689 C 243.411 258.631,243.524 258.452,243.693 258.292 C 243.862 258.131,244.000 258.043,244.000 258.095 C 244.000 258.148,244.106 258.091,244.235 257.970 C 244.365 257.849,244.780 257.487,245.158 257.167 C 245.537 256.846,246.082 256.340,246.370 256.042 C 246.659 255.744,246.961 255.500,247.043 255.500 C 247.213 255.500,247.667 255.076,247.667 254.917 C 247.667 254.716,248.142 254.333,248.391 254.333 C 248.527 254.333,248.847 254.113,249.101 253.843 C 249.355 253.574,249.621 253.388,249.690 253.431 C 249.760 253.474,249.901 253.351,250.005 253.157 C 250.109 252.963,250.236 252.848,250.289 252.900 C 250.341 252.952,250.479 252.865,250.595 252.706 C 250.711 252.547,250.906 252.413,251.028 252.409 C 251.150 252.405,251.236 252.326,251.219 252.234 C 251.203 252.142,251.342 251.971,251.529 251.854 C 251.808 251.680,251.844 251.681,251.735 251.863 C 251.661 251.984,251.847 251.840,252.147 251.542 C 252.447 251.244,252.799 251.000,252.929 251.000 C 253.060 251.000,253.167 250.925,253.167 250.833 C 253.167 250.742,253.277 250.667,253.411 250.667 C 253.546 250.667,253.768 250.460,253.905 250.208 C 254.041 249.956,254.156 249.860,254.160 249.994 C 254.164 250.139,254.373 250.005,254.678 249.660 C 254.959 249.343,255.143 249.196,255.087 249.333 C 255.031 249.471,255.110 249.415,255.263 249.208 C 255.416 249.002,255.630 248.833,255.738 248.833 C 255.847 248.833,256.082 248.715,256.260 248.571 C 256.438 248.427,256.478 248.363,256.349 248.430 C 256.199 248.508,256.156 248.485,256.230 248.366 C 256.293 248.265,256.448 248.221,256.576 248.270 C 256.706 248.320,256.889 248.206,256.993 248.013 C 257.095 247.822,257.288 247.667,257.423 247.667 C 257.557 247.667,257.667 247.592,257.667 247.500 C 257.667 247.408,257.723 247.345,257.792 247.360 C 258.021 247.408,258.499 247.133,258.417 247.000 C 258.339 246.875,258.726 246.637,259.083 246.590 C 259.175 246.578,259.234 246.485,259.214 246.383 C 259.194 246.282,259.291 246.155,259.431 246.101 C 259.599 246.036,259.645 246.073,259.567 246.210 C 259.503 246.324,259.615 246.248,259.815 246.042 C 260.016 245.835,260.252 245.667,260.340 245.667 C 260.428 245.667,260.500 245.546,260.500 245.399 C 260.500 245.231,260.592 245.166,260.745 245.225 C 260.880 245.277,261.087 245.183,261.204 245.015 C 261.321 244.848,261.492 244.694,261.583 244.672 C 261.675 244.651,261.732 244.569,261.710 244.489 C 261.689 244.410,261.782 244.388,261.919 244.440 C 262.055 244.493,262.167 244.447,262.167 244.339 C 262.167 244.012,262.624 243.631,262.723 243.876 C 262.773 244.000,262.812 243.968,262.820 243.797 C 262.829 243.613,262.923 243.545,263.083 243.606 C 263.244 243.668,263.333 243.603,263.333 243.425 C 263.333 243.272,263.399 243.187,263.479 243.237 C 263.559 243.286,263.845 243.122,264.115 242.872 C 265.153 241.910,265.591 241.591,265.808 241.639 C 265.932 241.667,265.989 241.617,265.935 241.530 C 265.803 241.317,266.272 240.942,266.497 241.081 C 266.600 241.145,266.753 240.967,266.860 240.663 C 266.996 240.270,267.082 240.192,267.193 240.359 C 267.309 240.534,267.424 240.483,267.719 240.125 C 267.926 239.873,268.191 239.667,268.308 239.667 C 268.424 239.667,268.473 239.592,268.417 239.500 C 268.360 239.408,268.431 239.333,268.573 239.333 C 268.716 239.333,268.833 239.254,268.833 239.157 C 268.833 239.060,268.905 239.024,268.992 239.078 C 269.079 239.132,269.231 239.024,269.331 238.838 C 269.430 238.652,269.626 238.500,269.766 238.500 C 269.905 238.500,269.975 238.427,269.920 238.338 C 269.865 238.249,270.010 238.129,270.243 238.070 C 270.476 238.012,270.667 237.859,270.667 237.732 C 270.667 237.604,270.760 237.519,270.875 237.542 C 270.990 237.565,271.065 237.490,271.042 237.375 C 271.019 237.260,271.075 237.167,271.167 237.167 C 271.258 237.167,271.371 237.166,271.416 237.166 C 271.715 237.164,272.314 236.422,272.126 236.288 C 271.985 236.187,272.038 236.164,272.286 236.218 C 272.504 236.266,272.742 236.191,272.869 236.034 C 273.032 235.832,273.034 235.799,272.875 235.895 C 272.760 235.963,272.667 235.940,272.667 235.843 C 272.667 235.689,273.011 235.592,273.369 235.645 C 273.434 235.655,273.450 235.563,273.403 235.440 C 273.351 235.305,273.531 235.123,273.867 234.975 C 274.169 234.841,274.319 234.753,274.200 234.780 C 274.080 234.807,274.029 234.755,274.085 234.665 C 274.141 234.574,274.289 234.500,274.415 234.500 C 274.541 234.500,274.808 234.270,275.008 233.989 C 275.207 233.709,275.468 233.516,275.587 233.562 C 275.705 233.607,275.940 233.486,276.109 233.293 C 276.314 233.060,276.333 232.990,276.167 233.083 C 276.008 233.172,276.033 233.091,276.234 232.862 C 276.586 232.460,276.746 232.388,276.575 232.708 C 276.514 232.823,276.665 232.692,276.910 232.417 C 277.156 232.142,277.302 232.029,277.233 232.167 C 277.149 232.336,277.224 232.316,277.467 232.103 C 277.664 231.930,277.778 231.712,277.720 231.619 C 277.661 231.523,277.697 231.499,277.802 231.564 C 277.905 231.628,278.085 231.527,278.201 231.340 C 278.318 231.153,278.516 231.000,278.641 231.000 C 278.774 231.000,278.829 230.897,278.774 230.752 C 278.719 230.609,278.764 230.521,278.881 230.544 C 278.992 230.565,279.063 230.486,279.039 230.367 C 279.013 230.242,279.118 230.172,279.289 230.200 C 279.463 230.230,279.565 230.159,279.538 230.029 C 279.512 229.908,279.559 229.850,279.640 229.900 C 279.722 229.951,279.930 229.831,280.103 229.634 C 280.308 229.400,280.330 229.323,280.167 229.412 C 280.029 229.487,280.247 229.204,280.651 228.783 C 281.055 228.362,281.468 228.032,281.568 228.050 C 281.668 228.069,281.729 227.984,281.704 227.863 C 281.679 227.741,281.730 227.686,281.816 227.740 C 281.903 227.793,282.145 227.593,282.354 227.294 C 282.563 226.995,282.832 226.689,282.953 226.615 C 283.075 226.540,283.127 226.404,283.070 226.312 C 283.012 226.217,283.101 226.167,283.275 226.197 C 283.478 226.232,283.564 226.165,283.528 226.000 C 283.497 225.863,283.528 225.806,283.596 225.874 C 283.749 226.027,284.194 225.679,284.080 225.494 C 284.034 225.421,284.182 225.214,284.409 225.035 C 284.636 224.857,284.777 224.666,284.721 224.610 C 284.666 224.555,284.800 224.440,285.019 224.356 C 285.238 224.271,285.604 223.990,285.833 223.731 C 286.149 223.375,286.169 223.315,285.917 223.484 C 285.733 223.607,285.794 223.511,286.051 223.271 C 286.308 223.030,286.482 222.833,286.437 222.833 C 286.391 222.833,286.556 222.623,286.802 222.367 C 287.049 222.110,287.306 221.927,287.375 221.960 C 287.444 221.993,287.509 221.940,287.521 221.843 C 287.532 221.746,287.551 221.592,287.563 221.500 C 287.574 221.408,287.628 221.352,287.683 221.375 C 287.840 221.441,288.338 220.976,288.255 220.841 C 288.213 220.774,288.404 220.554,288.678 220.351 C 288.952 220.149,289.135 219.916,289.084 219.835 C 288.989 219.681,289.626 219.000,289.865 219.000 C 289.939 219.000,290.000 218.850,290.000 218.667 C 290.000 218.483,290.056 218.352,290.125 218.375 C 290.194 218.398,290.264 218.355,290.281 218.279 C 290.298 218.203,290.456 218.016,290.632 217.862 C 290.808 217.709,291.006 217.413,291.071 217.206 C 291.140 216.990,291.269 216.877,291.374 216.942 C 291.492 217.015,291.518 216.954,291.447 216.769 C 291.387 216.611,291.403 216.523,291.483 216.573 C 291.629 216.663,291.922 216.399,292.027 216.083 C 292.058 215.992,292.145 215.937,292.221 215.962 C 292.296 215.988,292.310 215.931,292.252 215.836 C 292.193 215.742,292.263 215.619,292.406 215.564 C 292.549 215.509,292.667 215.378,292.667 215.272 C 292.667 215.166,292.853 214.939,293.080 214.769 C 293.308 214.598,293.462 214.407,293.423 214.344 C 293.385 214.282,293.574 214.022,293.843 213.768 C 294.113 213.513,294.333 213.161,294.333 212.986 C 294.333 212.810,294.443 212.667,294.578 212.667 C 294.727 212.667,294.785 212.569,294.727 212.417 C 294.674 212.279,294.712 212.167,294.810 212.167 C 294.909 212.167,294.949 212.062,294.900 211.933 C 294.842 211.782,294.917 211.709,295.112 211.725 C 295.280 211.739,295.487 211.584,295.579 211.375 C 295.671 211.169,295.803 211.000,295.873 211.000 C 295.943 211.000,296.000 210.912,296.000 210.805 C 296.000 210.697,296.131 210.460,296.292 210.276 C 296.507 210.030,296.518 209.976,296.333 210.069 C 296.196 210.139,296.271 210.033,296.500 209.833 C 296.729 209.634,296.804 209.530,296.667 209.603 C 296.529 209.676,296.623 209.489,296.875 209.188 C 297.127 208.887,297.333 208.534,297.333 208.404 C 297.333 208.273,297.438 208.167,297.566 208.167 C 297.838 208.167,298.067 207.712,298.013 207.279 C 297.989 207.090,298.109 206.940,298.330 206.882 C 298.542 206.827,298.650 206.698,298.599 206.563 C 298.551 206.439,298.603 206.355,298.714 206.377 C 298.826 206.399,298.898 206.323,298.875 206.208 C 298.852 206.094,298.915 206.000,299.014 206.000 C 299.113 206.000,299.163 205.907,299.125 205.793 C 299.088 205.679,299.138 205.494,299.237 205.382 C 299.659 204.904,299.756 204.736,299.747 204.500 C 299.743 204.362,299.884 204.119,300.061 203.958 C 300.296 203.747,300.320 203.664,300.151 203.656 C 300.022 203.650,300.085 203.578,300.292 203.495 C 300.502 203.410,300.667 203.200,300.667 203.017 C 300.667 202.838,300.760 202.590,300.875 202.466 C 300.990 202.343,301.108 202.131,301.138 201.996 C 301.169 201.861,301.300 201.690,301.430 201.617 C 301.560 201.543,301.667 201.352,301.667 201.192 C 301.667 201.031,301.757 200.810,301.867 200.700 C 301.977 200.590,302.008 200.500,301.936 200.500 C 301.865 200.500,301.968 200.237,302.167 199.917 C 302.365 199.596,302.478 199.333,302.418 199.333 C 302.358 199.333,302.409 199.223,302.530 199.089 C 303.087 198.471,303.184 198.307,303.151 198.038 C 303.102 197.645,303.335 197.148,303.516 197.260 C 303.597 197.310,303.613 197.222,303.553 197.065 C 303.479 196.872,303.506 196.818,303.636 196.898 C 303.767 196.978,303.794 196.924,303.720 196.731 C 303.644 196.535,303.672 196.484,303.809 196.568 C 303.919 196.636,303.998 196.630,303.984 196.554 C 303.902 196.078,304.028 195.506,304.208 195.542 C 304.326 195.565,304.440 195.383,304.469 195.125 C 304.498 194.873,304.597 194.667,304.688 194.667 C 304.779 194.667,304.807 194.592,304.750 194.500 C 304.693 194.408,304.726 194.333,304.823 194.333 C 304.921 194.333,304.988 194.277,304.973 194.208 C 304.958 194.140,305.034 193.871,305.141 193.611 C 305.248 193.351,305.296 193.075,305.248 192.996 C 305.199 192.918,305.277 192.788,305.421 192.707 C 305.565 192.627,305.695 192.397,305.710 192.197 C 305.725 191.997,305.794 191.833,305.864 191.833 C 305.933 191.833,305.945 191.718,305.891 191.577 C 305.837 191.436,305.915 191.186,306.063 191.022 C 306.212 190.857,306.284 190.673,306.223 190.611 C 306.161 190.550,306.203 190.500,306.315 190.500 C 306.428 190.500,306.468 190.417,306.405 190.315 C 306.342 190.213,306.394 190.064,306.520 189.984 C 306.713 189.862,306.711 189.838,306.510 189.836 C 306.333 189.834,306.351 189.774,306.577 189.609 C 306.790 189.453,306.825 189.348,306.692 189.266 C 306.417 189.096,306.454 188.826,306.738 188.935 C 306.915 189.003,306.951 188.932,306.878 188.654 C 306.812 188.399,306.841 188.318,306.972 188.399 C 307.096 188.476,307.128 188.426,307.064 188.259 C 307.009 188.116,307.045 188.000,307.144 188.000 C 307.242 188.000,307.280 187.887,307.227 187.750 C 307.174 187.612,307.214 187.500,307.316 187.500 C 307.417 187.500,307.500 187.421,307.500 187.323 C 307.500 187.226,307.425 187.193,307.333 187.250 C 307.096 187.397,307.127 187.107,307.375 186.858 C 307.490 186.744,307.589 186.597,307.595 186.533 C 307.601 186.469,307.708 186.079,307.831 185.667 C 307.955 185.254,308.073 184.842,308.093 184.750 C 308.114 184.658,308.241 184.058,308.376 183.417 C 308.512 182.775,308.745 181.961,308.894 181.607 C 309.043 181.254,309.126 180.903,309.080 180.827 C 309.033 180.752,309.078 180.638,309.181 180.575 C 309.289 180.508,309.326 180.255,309.269 179.972 C 309.201 179.630,309.229 179.519,309.362 179.601 C 309.481 179.674,309.506 179.644,309.428 179.518 C 309.360 179.409,309.376 179.228,309.464 179.118 C 309.552 179.007,309.603 178.786,309.577 178.626 C 309.551 178.466,309.595 178.294,309.674 178.245 C 309.754 178.196,309.777 178.046,309.725 177.911 C 309.673 177.777,309.688 177.535,309.757 177.375 C 309.962 176.902,309.981 176.667,309.814 176.667 C 309.728 176.667,309.778 176.435,309.924 176.152 C 310.071 175.868,310.150 175.531,310.101 175.402 C 310.051 175.272,310.067 175.167,310.136 175.167 C 310.206 175.167,310.284 174.923,310.311 174.625 C 310.337 174.327,310.395 173.858,310.439 173.583 C 310.482 173.308,310.546 172.821,310.580 172.500 C 310.615 172.179,310.654 171.917,310.668 171.917 C 310.746 171.917,310.838 170.948,310.852 170.000 C 310.860 169.404,310.914 168.842,310.971 168.750 C 311.028 168.658,311.051 168.123,311.023 167.560 C 310.995 166.998,311.034 166.499,311.111 166.452 C 311.187 166.404,311.212 164.705,311.167 162.675 C 311.121 160.644,311.130 158.856,311.188 158.700 C 311.245 158.544,311.232 158.341,311.159 158.248 C 311.085 158.155,310.982 157.068,310.929 155.831 C 310.805 152.945,310.692 151.952,310.472 151.816 C 310.357 151.745,310.375 151.676,310.523 151.617 C 310.701 151.546,310.696 151.524,310.500 151.513 C 310.306 151.503,310.255 151.289,310.273 150.553 C 310.287 149.956,310.181 149.339,309.987 148.886 C 309.770 148.379,309.738 148.166,309.881 148.164 C 310.029 148.162,310.032 148.129,309.893 148.039 C 309.788 147.972,309.725 147.710,309.753 147.458 C 309.781 147.206,309.740 147.000,309.662 147.000 C 309.584 147.000,309.520 146.869,309.518 146.708 C 309.514 146.254,309.345 145.276,309.223 145.000 C 309.162 144.862,309.096 144.694,309.077 144.625 C 309.058 144.556,309.026 144.481,309.007 144.458 C 308.988 144.435,308.948 144.267,308.919 144.083 C 308.890 143.900,308.789 143.506,308.694 143.208 C 308.600 142.910,308.569 142.667,308.624 142.667 C 308.679 142.667,308.543 142.463,308.321 142.213 C 308.031 141.888,308.010 141.829,308.247 142.005 C 308.574 142.247,308.574 142.245,308.272 141.771 C 308.103 141.508,308.047 141.343,308.147 141.405 C 308.261 141.475,308.292 141.420,308.230 141.259 C 308.176 141.116,308.069 141.000,307.993 141.000 C 307.917 141.000,307.890 140.806,307.933 140.570 C 307.988 140.266,307.953 140.176,307.813 140.263 C 307.674 140.349,307.642 140.277,307.708 140.026 C 307.768 139.795,307.739 139.706,307.625 139.776 C 307.511 139.846,307.481 139.756,307.541 139.526 C 307.593 139.328,307.577 139.167,307.505 139.167 C 307.392 139.167,307.299 138.883,307.073 137.850 C 307.045 137.722,306.923 137.554,306.803 137.478 C 306.629 137.367,306.635 137.337,306.833 137.333 C 307.056 137.329,307.056 137.310,306.833 137.167 C 306.696 137.078,306.648 137.004,306.728 137.003 C 306.807 137.001,306.739 136.798,306.578 136.551 C 306.310 136.143,306.006 135.233,305.962 134.708 C 305.952 134.594,305.882 134.500,305.806 134.500 C 305.729 134.500,305.667 134.324,305.667 134.109 C 305.667 133.894,305.518 133.584,305.337 133.420 C 305.156 133.256,305.051 133.053,305.103 132.968 C 305.232 132.759,304.837 131.833,304.619 131.833 C 304.523 131.833,304.492 131.786,304.551 131.727 C 304.609 131.669,304.494 131.393,304.296 131.114 C 304.097 130.835,304.031 130.666,304.150 130.740 C 304.268 130.813,304.133 130.455,303.849 129.945 C 303.566 129.435,303.333 128.929,303.333 128.820 C 303.333 128.711,303.178 128.488,302.989 128.324 C 302.800 128.160,302.649 127.983,302.654 127.930 C 302.670 127.754,302.085 126.584,301.921 126.467 C 301.832 126.404,301.811 126.301,301.873 126.238 C 301.935 126.176,301.854 126.003,301.693 125.854 C 301.510 125.685,301.497 125.644,301.659 125.745 C 301.801 125.834,301.747 125.716,301.540 125.483 C 301.333 125.249,301.207 125.015,301.261 124.961 C 301.315 124.908,301.193 124.811,300.991 124.747 C 300.703 124.656,300.673 124.598,300.853 124.484 C 301.033 124.370,301.036 124.338,300.865 124.336 C 300.745 124.334,300.693 124.258,300.750 124.167 C 300.807 124.075,300.728 124.000,300.575 124.000 C 300.404 124.000,300.332 123.909,300.388 123.763 C 300.438 123.633,300.334 123.359,300.156 123.155 C 299.979 122.950,299.833 122.685,299.833 122.566 C 299.833 122.447,299.702 122.273,299.542 122.180 C 299.381 122.087,299.321 122.008,299.407 122.005 C 299.493 122.002,299.418 121.882,299.240 121.738 C 299.062 121.593,299.029 121.524,299.167 121.583 C 299.304 121.643,299.271 121.573,299.093 121.429 C 298.915 121.285,298.840 121.164,298.926 121.161 C 299.013 121.158,298.896 121.048,298.667 120.917 C 298.411 120.771,298.347 120.674,298.500 120.668 C 298.698 120.659,298.689 120.621,298.458 120.487 C 298.298 120.393,298.167 120.206,298.167 120.070 C 298.167 119.934,298.055 119.780,297.918 119.727 C 297.781 119.675,297.710 119.564,297.762 119.481 C 297.813 119.399,297.738 119.286,297.595 119.231 C 297.452 119.177,297.372 119.072,297.417 119.000 C 297.461 118.928,297.386 118.825,297.249 118.773 C 297.112 118.720,297.000 118.571,297.000 118.442 C 297.000 118.313,296.890 118.116,296.755 118.004 C 296.621 117.893,296.517 117.752,296.525 117.692 C 296.568 117.364,296.480 117.160,296.333 117.250 C 296.183 117.343,296.094 117.124,296.147 116.792 C 296.158 116.723,296.087 116.667,295.990 116.667 C 295.893 116.667,295.860 116.592,295.917 116.500 C 295.973 116.408,295.898 116.333,295.750 116.333 C 295.602 116.333,295.527 116.258,295.584 116.165 C 295.641 116.073,295.571 115.953,295.427 115.898 C 295.284 115.843,295.167 115.665,295.167 115.503 C 295.167 115.340,295.049 115.110,294.904 114.990 C 294.665 114.791,294.379 114.327,293.659 112.972 C 293.518 112.705,293.349 112.540,293.284 112.605 C 293.220 112.669,293.167 112.624,293.167 112.504 C 293.167 112.385,293.035 112.179,292.875 112.048 C 292.706 111.909,292.689 111.862,292.833 111.936 C 293.048 112.046,293.051 112.024,292.856 111.784 C 292.731 111.630,292.561 111.546,292.477 111.598 C 292.393 111.649,292.336 111.630,292.349 111.554 C 292.407 111.218,292.320 110.989,292.169 111.082 C 292.075 111.140,292.046 111.075,292.100 110.932 C 292.163 110.770,292.023 110.574,291.707 110.382 C 291.420 110.206,291.235 109.964,291.260 109.795 C 291.285 109.628,290.902 109.105,290.360 108.563 C 289.841 108.044,289.417 107.564,289.417 107.495 C 289.417 107.427,289.135 107.114,288.792 106.799 C 288.448 106.484,288.167 106.138,288.167 106.030 C 288.167 105.922,288.099 105.833,288.016 105.833 C 287.934 105.833,287.711 105.570,287.521 105.249 C 287.332 104.927,286.987 104.577,286.755 104.472 C 286.523 104.366,286.333 104.219,286.333 104.144 C 286.333 103.875,282.674 100.309,282.505 100.413 C 282.411 100.472,282.333 100.452,282.333 100.370 C 282.333 100.288,282.036 99.909,281.673 99.527 C 281.078 98.901,280.833 98.757,280.464 98.812 C 280.399 98.821,280.381 98.736,280.425 98.622 C 280.469 98.508,280.335 98.340,280.127 98.249 C 279.920 98.158,279.750 97.996,279.750 97.889 C 279.750 97.782,279.682 97.632,279.598 97.556 C 279.510 97.475,279.497 97.504,279.566 97.625 C 279.632 97.740,279.607 97.833,279.510 97.833 C 279.413 97.833,279.333 97.732,279.333 97.609 C 279.333 97.486,279.183 97.249,279.000 97.083 C 278.765 96.870,278.667 96.846,278.667 97.002 C 278.667 97.123,278.610 97.166,278.542 97.097 C 278.473 97.028,278.417 96.893,278.417 96.796 C 278.417 96.699,278.267 96.536,278.083 96.435 C 277.900 96.333,277.695 96.175,277.628 96.083 C 277.555 95.985,277.501 96.019,277.496 96.167 C 277.491 96.305,277.376 96.212,277.238 95.958 C 277.101 95.706,276.894 95.500,276.777 95.500 C 276.659 95.500,276.418 95.382,276.240 95.238 C 276.062 95.093,276.022 95.030,276.151 95.097 C 276.299 95.174,276.344 95.152,276.272 95.036 C 276.210 94.936,276.013 94.882,275.833 94.917 C 275.654 94.951,275.514 94.928,275.523 94.865 C 275.570 94.536,275.481 94.325,275.333 94.417 C 275.242 94.473,275.167 94.436,275.167 94.333 C 275.167 94.231,275.092 94.193,275.000 94.250 C 274.908 94.307,274.833 94.244,274.833 94.112 C 274.833 93.979,274.702 93.881,274.542 93.894 C 274.362 93.908,274.271 93.820,274.306 93.667 C 274.336 93.529,274.306 93.472,274.239 93.539 C 274.171 93.606,274.010 93.531,273.879 93.372 C 273.749 93.213,273.689 93.177,273.747 93.292 C 273.806 93.406,273.782 93.500,273.696 93.500 C 273.610 93.500,273.500 93.350,273.452 93.167 C 273.402 92.978,273.224 92.833,273.041 92.833 C 272.864 92.833,272.583 92.683,272.417 92.500 C 272.251 92.317,272.014 92.167,271.891 92.167 C 271.768 92.167,271.667 92.090,271.667 91.996 C 271.667 91.902,271.477 91.753,271.246 91.665 C 271.014 91.577,270.781 91.392,270.728 91.253 C 270.675 91.115,270.565 91.043,270.483 91.094 C 270.400 91.145,270.333 91.107,270.333 91.010 C 270.333 90.913,270.218 90.833,270.078 90.833 C 269.938 90.833,269.778 90.717,269.723 90.574 C 269.668 90.431,269.521 90.354,269.395 90.402 C 269.263 90.453,269.167 90.382,269.167 90.235 C 269.167 90.095,269.092 90.027,269.000 90.083 C 268.908 90.140,268.833 90.107,268.833 90.010 C 268.833 89.913,268.711 89.833,268.561 89.833 C 268.412 89.833,268.142 89.665,267.963 89.458 C 267.784 89.252,267.550 89.073,267.444 89.061 C 267.337 89.049,267.156 89.030,267.042 89.019 C 266.927 89.009,266.852 88.916,266.875 88.814 C 266.898 88.711,266.787 88.606,266.628 88.579 C 266.470 88.552,266.220 88.410,266.073 88.264 C 265.927 88.117,265.737 88.040,265.652 88.092 C 265.567 88.145,265.280 88.033,265.015 87.844 C 264.749 87.655,264.460 87.500,264.373 87.500 C 264.285 87.500,263.940 87.315,263.607 87.088 C 263.273 86.862,263.000 86.713,263.000 86.757 C 263.000 86.801,262.700 86.648,262.333 86.417 C 261.967 86.185,261.667 86.049,261.667 86.115 C 261.667 86.180,261.583 86.149,261.480 86.046 C 261.377 85.944,261.190 85.899,261.064 85.947 C 260.939 85.995,260.788 85.908,260.728 85.753 C 260.642 85.528,260.591 85.517,260.474 85.694 C 260.357 85.871,260.274 85.848,260.068 85.583 C 259.926 85.400,259.731 85.272,259.634 85.299 C 259.537 85.325,259.305 85.213,259.117 85.049 C 258.930 84.884,258.830 84.843,258.897 84.956 C 258.978 85.096,258.933 85.131,258.759 85.064 C 258.616 85.009,258.500 84.910,258.500 84.843 C 258.500 84.777,258.387 84.710,258.250 84.694 C 258.112 84.679,257.887 84.654,257.750 84.639 C 257.612 84.624,257.500 84.540,257.500 84.453 C 257.500 84.366,257.350 84.334,257.166 84.382 C 256.973 84.432,256.875 84.401,256.933 84.307 C 256.988 84.217,256.932 84.161,256.808 84.182 C 256.581 84.220,256.200 84.104,255.574 83.807 C 255.386 83.718,255.161 83.666,255.074 83.691 C 254.988 83.717,254.729 83.634,254.500 83.507 C 254.271 83.381,254.063 83.295,254.039 83.318 C 253.974 83.377,252.946 83.145,252.750 83.027 C 252.556 82.910,252.189 82.819,251.833 82.801 C 251.696 82.794,251.493 82.717,251.382 82.630 C 251.272 82.543,251.095 82.525,250.989 82.590 C 250.883 82.656,250.748 82.631,250.689 82.536 C 250.616 82.418,250.489 82.429,250.298 82.569 M281.823 114.890 C 284.033 116.353,287.156 121.456,290.150 128.500 C 290.637 129.646,291.136 130.808,291.258 131.083 C 297.046 144.075,299.573 156.508,299.560 171.917 C 299.550 184.194,298.468 189.424,294.079 198.417 C 284.584 217.871,262.278 227.066,256.006 214.112 C 253.579 209.101,254.008 206.018,258.838 193.747 C 262.515 184.405,264.977 175.427,265.739 168.583 C 266.395 162.684,266.417 162.299,266.413 156.417 C 266.409 149.579,266.188 147.081,265.017 140.667 C 262.880 128.961,263.639 123.854,268.231 119.030 C 271.628 115.461,279.201 113.155,281.823 114.890 M116.250 232.157 C 119.863 233.922,121.949 238.294,125.165 250.833 C 129.139 266.327,133.877 275.229,144.691 287.515 C 153.766 297.825,156.732 305.646,154.079 312.264 C 149.293 324.205,130.606 314.565,118.401 293.858 C 117.610 292.515,116.718 291.004,116.419 290.500 C 115.338 288.676,111.712 281.206,111.109 279.560 C 110.979 279.206,110.524 278.054,110.097 277.000 C 105.910 266.655,104.036 255.023,105.087 245.894 C 105.842 239.340,107.828 232.717,109.139 232.388 C 112.431 231.559,114.864 231.480,116.250 232.157 " stroke="none" fill="#fb9304" fill-rule="evenodd"></path><path id="path3" d="M281.667 99.385 C 281.667 99.414,281.910 99.658,282.208 99.927 L 282.750 100.417 282.260 99.875 C 281.804 99.370,281.667 99.257,281.667 99.385 M285.250 102.833 C 285.608 103.200,285.938 103.500,285.984 103.500 C 286.030 103.500,285.775 103.200,285.417 102.833 C 285.059 102.467,284.728 102.167,284.682 102.167 C 284.637 102.167,284.892 102.467,285.250 102.833 M288.167 106.052 C 288.167 106.081,288.410 106.325,288.708 106.594 L 289.250 107.083 288.760 106.542 C 288.304 106.037,288.167 105.923,288.167 106.052 M133.091 109.993 L 132.265 110.917 133.166 110.048 C 133.662 109.570,134.034 109.154,133.992 109.124 C 133.951 109.093,133.545 109.484,133.091 109.993 M130.167 113.083 C 129.762 113.496,129.468 113.833,129.514 113.833 C 129.560 113.833,129.928 113.496,130.333 113.083 C 130.738 112.671,131.032 112.333,130.986 112.333 C 130.940 112.333,130.572 112.671,130.167 113.083 M294.282 114.013 C 294.448 114.295,294.690 114.614,294.820 114.721 C 294.950 114.829,294.846 114.598,294.590 114.208 C 294.050 113.390,293.837 113.255,294.282 114.013 M277.280 114.862 C 273.825 115.204,269.602 117.541,267.546 120.250 C 263.990 124.935,263.384 129.622,265.089 139.250 C 267.165 150.974,267.383 157.949,266.016 168.833 C 265.015 176.801,262.895 184.285,258.415 195.667 C 255.077 204.149,254.340 207.903,255.304 211.522 C 259.334 226.652,281.759 219.907,292.803 200.243 C 299.113 189.006,300.948 174.904,298.405 157.184 C 296.838 146.265,292.878 134.172,287.150 122.817 C 283.511 115.604,282.011 114.395,277.280 114.862 M119.181 126.792 C 118.684 127.518,118.756 127.457,119.678 126.375 C 119.854 126.169,119.936 126.000,119.860 126.000 C 119.785 126.000,119.479 126.356,119.181 126.792 M302.552 199.292 C 302.495 199.452,302.417 199.658,302.379 199.750 C 302.340 199.842,302.427 199.771,302.571 199.593 C 302.833 199.270,302.912 199.000,302.745 199.000 C 302.696 199.000,302.609 199.131,302.552 199.292 M280.740 228.875 L 280.250 229.417 280.792 228.927 C 281.297 228.471,281.410 228.333,281.281 228.333 C 281.252 228.333,281.009 228.577,280.740 228.875 M243.917 258.271 C 243.617 258.526,243.556 258.627,243.764 258.524 C 244.069 258.372,244.642 257.824,244.479 257.839 C 244.445 257.843,244.192 258.037,243.917 258.271 M201.577 295.208 L 200.750 296.083 201.625 295.256 C 202.106 294.801,202.500 294.408,202.500 294.381 C 202.500 294.257,202.346 294.395,201.577 295.208 M194.667 302.583 C 194.262 302.996,193.968 303.333,194.014 303.333 C 194.060 303.333,194.428 302.996,194.833 302.583 C 195.238 302.171,195.532 301.833,195.486 301.833 C 195.440 301.833,195.072 302.171,194.667 302.583 M190.740 306.375 L 190.250 306.917 190.792 306.427 C 191.297 305.971,191.410 305.833,191.281 305.833 C 191.252 305.833,191.009 306.077,190.740 306.375 M123.160 317.050 C 123.894 317.824,124.256 318.101,123.812 317.549 C 123.488 317.146,123.121 316.788,122.743 316.508 C 122.563 316.375,122.751 316.619,123.160 317.050 " stroke="none" fill="#fcab1b" fill-rule="evenodd"></path><path id="path4" d="M249.935 45.137 C 249.889 45.212,250.072 45.241,250.342 45.201 C 250.612 45.161,250.833 45.100,250.833 45.064 C 250.833 44.937,250.018 45.003,249.935 45.137 M242.145 48.944 C 241.936 49.198,241.952 49.203,242.333 49.005 C 242.892 48.714,242.934 48.667,242.632 48.667 C 242.490 48.667,242.271 48.791,242.145 48.944 M249.900 82.752 C 249.670 82.982,249.366 83.450,249.224 83.793 C 248.662 85.155,248.515 85.186,245.083 84.660 C 241.211 84.067,241.545 84.032,240.583 85.131 C 239.732 86.104,240.123 85.881,241.090 84.842 L 241.626 84.267 242.521 84.475 C 243.627 84.732,247.009 85.164,247.933 85.165 C 248.722 85.167,248.924 84.984,249.569 83.679 C 249.814 83.182,250.143 82.678,250.299 82.560 C 250.456 82.441,250.524 82.342,250.451 82.339 C 250.378 82.336,250.130 82.522,249.900 82.752 M157.875 112.948 C 158.035 112.990,158.298 112.990,158.458 112.948 C 158.619 112.906,158.487 112.872,158.167 112.872 C 157.846 112.872,157.715 112.906,157.875 112.948 M171.211 112.953 C 171.464 112.991,171.839 112.990,172.044 112.951 C 172.249 112.911,172.042 112.880,171.583 112.881 C 171.125 112.882,170.957 112.915,171.211 112.953 M122.584 121.999 C 122.418 122.183,122.336 122.333,122.403 122.333 C 122.578 122.333,123.054 121.831,122.963 121.741 C 122.921 121.699,122.751 121.815,122.584 121.999 M121.047 124.125 C 120.987 124.285,120.820 124.515,120.677 124.634 C 120.455 124.820,120.468 124.827,120.771 124.681 C 120.966 124.587,121.165 124.358,121.214 124.172 C 121.322 123.757,121.198 123.722,121.047 124.125 M111.000 231.979 C 108.752 232.450,108.716 232.465,108.336 233.079 C 107.199 234.918,105.645 241.050,105.087 245.894 C 104.036 255.023,105.910 266.655,110.097 277.000 C 110.524 278.054,110.979 279.206,111.109 279.560 C 111.712 281.206,115.338 288.676,116.419 290.500 C 116.718 291.004,117.610 292.515,118.401 293.858 C 132.441 317.679,154.872 325.942,154.855 307.288 C 154.849 301.354,152.009 295.830,144.691 287.515 C 133.877 275.229,129.139 266.327,125.165 250.833 C 120.881 234.129,118.143 230.483,111.000 231.979 M93.705 238.333 C 93.705 238.654,93.740 238.785,93.782 238.625 C 93.823 238.465,93.823 238.202,93.782 238.042 C 93.740 237.881,93.705 238.012,93.705 238.333 M230.073 269.208 L 229.583 269.750 230.125 269.260 C 230.630 268.804,230.743 268.667,230.615 268.667 C 230.586 268.667,230.342 268.910,230.073 269.208 " stroke="none" fill="#e48407" fill-rule="evenodd"></path><path id="path5" d="M239.283 86.065 C 237.396 88.064,231.779 92.186,226.500 95.444 C 212.657 103.990,196.123 109.728,179.333 111.814 C 173.867 112.493,172.193 112.583,165.083 112.583 C 158.177 112.583,157.566 112.552,151.917 111.901 C 147.071 111.344,139.270 109.885,135.968 108.919 C 135.461 108.771,135.021 108.740,134.718 108.831 C 134.262 108.968,134.265 108.972,134.862 108.986 C 135.199 108.994,136.699 109.293,138.195 109.650 C 142.108 110.585,144.477 111.044,148.583 111.661 C 151.054 112.033,152.146 112.170,153.917 112.334 C 154.925 112.427,156.612 112.582,157.667 112.680 C 178.423 114.600,204.805 108.357,224.500 96.866 C 230.764 93.210,241.239 85.500,239.941 85.500 C 239.872 85.500,239.576 85.754,239.283 86.065 " stroke="none" fill="#b49f04" fill-rule="evenodd"></path><path id="path6" d="M253.541 44.432 C 253.592 44.515,253.228 44.594,252.733 44.607 C 252.237 44.621,251.701 44.689,251.541 44.758 C 251.381 44.828,251.111 44.867,250.940 44.845 C 250.740 44.820,250.673 44.876,250.751 45.001 C 250.834 45.135,250.723 45.182,250.394 45.151 C 249.834 45.098,249.135 45.300,248.961 45.564 C 248.876 45.693,248.838 45.685,248.836 45.536 C 248.834 45.372,248.753 45.364,248.495 45.502 C 248.309 45.602,248.194 45.743,248.240 45.816 C 248.285 45.890,248.102 45.956,247.833 45.964 C 247.564 45.971,247.177 46.132,246.974 46.322 C 246.642 46.631,246.326 46.744,245.958 46.686 C 245.890 46.676,245.833 46.746,245.833 46.843 C 245.833 46.940,245.758 46.973,245.667 46.917 C 245.575 46.860,245.500 46.898,245.500 47.000 C 245.500 47.102,245.430 47.143,245.345 47.090 C 245.260 47.038,245.142 47.072,245.083 47.167 C 245.024 47.262,244.607 47.527,244.155 47.756 C 243.703 47.985,243.333 48.284,243.333 48.419 C 243.333 48.555,243.254 48.667,243.157 48.667 C 243.060 48.667,243.026 48.593,243.082 48.502 C 243.140 48.408,243.074 48.379,242.926 48.436 C 242.785 48.490,242.705 48.593,242.749 48.665 C 242.793 48.736,242.455 48.955,241.998 49.152 C 241.198 49.496,240.856 49.756,241.458 49.562 C 241.705 49.483,241.711 49.497,241.500 49.648 C 241.362 49.747,241.114 49.829,240.948 49.831 C 240.783 49.832,240.693 49.908,240.750 50.000 C 240.807 50.092,240.734 50.167,240.588 50.167 C 240.442 50.167,240.281 50.276,240.229 50.410 C 240.178 50.544,239.992 50.700,239.816 50.756 C 239.639 50.812,239.545 50.939,239.607 51.038 C 239.675 51.149,239.640 51.170,239.514 51.092 C 239.386 51.013,239.147 51.161,238.880 51.483 C 238.645 51.767,238.383 52.000,238.298 52.000 C 237.998 52.000,237.005 52.873,237.111 53.044 C 237.173 53.145,237.138 53.168,237.026 53.099 C 236.920 53.034,236.833 53.064,236.833 53.167 C 236.833 53.269,236.770 53.314,236.692 53.266 C 236.614 53.217,236.474 53.344,236.381 53.547 C 236.288 53.750,236.119 54.114,236.005 54.354 C 235.856 54.672,235.848 54.882,235.977 55.124 C 236.075 55.307,236.108 55.504,236.050 55.561 C 235.860 55.751,236.228 55.673,237.080 55.343 C 237.540 55.165,238.892 54.739,240.083 54.396 C 245.494 52.842,250.033 50.461,254.118 47.035 C 255.895 45.544,255.981 45.439,255.612 45.217 C 255.491 45.143,255.332 44.933,255.260 44.750 C 255.165 44.511,255.104 44.481,255.044 44.644 C 254.983 44.807,254.926 44.817,254.841 44.680 C 254.776 44.574,254.436 44.442,254.086 44.385 C 253.720 44.325,253.488 44.346,253.541 44.432 M239.491 86.102 C 235.448 90.340,223.955 97.713,214.833 101.921 C 197.345 109.988,174.678 114.254,157.667 112.680 C 156.612 112.582,154.925 112.427,153.917 112.334 C 152.146 112.170,151.054 112.033,148.583 111.661 C 144.472 111.043,142.108 110.585,138.179 109.646 C 136.673 109.286,135.360 109.019,135.262 109.052 C 134.680 109.249,144.284 111.222,149.250 111.925 C 177.204 115.885,206.417 109.254,230.083 93.577 C 234.137 90.892,239.099 87.031,239.848 85.979 C 240.308 85.333,240.184 85.376,239.491 86.102 M311.052 156.917 C 311.053 157.467,311.084 157.672,311.121 157.372 C 311.158 157.072,311.157 156.622,311.119 156.372 C 311.081 156.122,311.051 156.367,311.052 156.917 M311.237 162.250 C 311.237 164.083,311.261 164.856,311.291 163.967 C 311.321 163.078,311.321 161.578,311.291 160.634 C 311.261 159.689,311.237 160.417,311.237 162.250 M311.048 167.250 C 311.049 167.708,311.081 167.876,311.120 167.623 C 311.158 167.369,311.157 166.994,311.117 166.789 C 311.078 166.584,311.046 166.792,311.048 167.250 M93.042 203.750 C 93.044 204.117,93.078 204.247,93.118 204.040 C 93.158 203.832,93.156 203.532,93.115 203.373 C 93.073 203.214,93.040 203.383,93.042 203.750 M92.881 206.083 C 92.882 206.542,92.915 206.709,92.953 206.456 C 92.991 206.203,92.990 205.828,92.951 205.623 C 92.911 205.418,92.880 205.625,92.881 206.083 M92.881 229.417 C 92.882 229.875,92.915 230.043,92.953 229.789 C 92.991 229.536,92.990 229.161,92.951 228.956 C 92.911 228.751,92.880 228.958,92.881 229.417 M93.048 231.750 C 93.049 232.208,93.081 232.376,93.120 232.123 C 93.158 231.869,93.157 231.494,93.117 231.289 C 93.078 231.084,93.046 231.292,93.048 231.750 " stroke="none" fill="#d59c04" fill-rule="evenodd"></path><path id="path7" d="M255.591 45.897 C 255.413 45.999,254.625 46.636,253.841 47.312 C 250.066 50.568,244.795 53.254,239.417 54.665 C 236.821 55.346,235.950 55.734,236.137 56.126 C 236.212 56.286,236.693 57.242,237.204 58.250 C 239.174 62.133,240.333 66.817,240.333 70.896 L 240.333 72.500 240.922 72.500 C 241.698 72.500,242.311 72.771,243.917 73.826 L 245.250 74.702 246.833 74.574 C 250.055 74.314,252.347 74.382,253.101 74.759 L 253.785 75.101 253.978 74.592 C 255.460 70.682,256.108 67.971,256.689 63.250 C 257.305 58.238,256.492 45.379,255.591 45.897 M240.550 74.667 C 240.550 75.171,240.581 75.377,240.619 75.125 C 240.658 74.873,240.658 74.460,240.619 74.208 C 240.581 73.956,240.550 74.162,240.550 74.667 M240.383 77.667 C 240.383 78.171,240.415 78.377,240.453 78.125 C 240.491 77.873,240.491 77.460,240.453 77.208 C 240.415 76.956,240.383 77.162,240.383 77.667 M249.619 82.668 C 249.385 82.853,249.064 83.342,248.906 83.755 C 248.489 84.847,248.364 84.849,242.039 83.880 C 241.422 83.785,241.208 83.924,240.474 84.901 L 239.961 85.583 240.672 84.855 C 241.483 84.024,241.055 84.043,245.083 84.660 C 248.515 85.186,248.662 85.155,249.224 83.793 C 249.366 83.450,249.670 82.982,249.900 82.752 C 250.401 82.251,250.218 82.197,249.619 82.668 " stroke="none" fill="#a46404" fill-rule="evenodd"></path><path id="path8" d="M263.333 86.915 C 263.333 87.029,264.354 87.535,264.430 87.459 C 264.466 87.423,264.234 87.268,263.915 87.116 C 263.595 86.963,263.333 86.873,263.333 86.915 M275.566 94.861 C 275.496 94.974,275.522 95.006,275.629 94.940 C 275.729 94.878,275.857 94.904,275.914 94.996 C 276.020 95.167,276.667 95.560,276.667 95.454 C 276.667 95.235,275.668 94.696,275.566 94.861 M277.417 114.516 C 272.503 115.005,267.673 118.408,265.489 122.919 C 263.442 127.149,263.328 131.417,265.017 140.667 C 266.188 147.081,266.409 149.579,266.413 156.417 C 266.417 162.299,266.395 162.684,265.739 168.583 C 264.977 175.427,262.515 184.405,258.838 193.747 C 254.008 206.018,253.579 209.101,256.006 214.112 C 258.584 219.436,263.692 221.274,270.703 219.398 C 284.181 215.792,295.702 201.432,298.834 184.333 C 300.282 176.430,299.790 161.401,297.756 151.440 C 296.488 145.226,293.782 136.748,291.258 131.083 C 291.136 130.808,290.637 129.646,290.150 128.500 C 287.156 121.456,284.033 116.353,281.823 114.890 C 281.134 114.434,279.572 114.302,277.417 114.516 M281.791 115.271 C 286.015 117.712,294.683 137.876,297.482 151.767 C 301.350 170.967,299.711 187.940,292.803 200.243 C 282.672 218.283,262.296 226.026,256.306 214.112 C 254.013 209.551,254.448 205.748,258.415 195.667 C 262.895 184.285,265.015 176.801,266.016 168.833 C 267.383 157.949,267.165 150.974,265.089 139.250 C 263.384 129.622,263.990 124.935,267.546 120.250 C 270.663 116.144,278.539 113.391,281.791 115.271 M92.723 208.833 C 92.723 209.521,92.752 209.802,92.788 209.458 C 92.824 209.115,92.824 208.552,92.788 208.208 C 92.752 207.865,92.723 208.146,92.723 208.833 M92.723 226.667 C 92.723 227.354,92.752 227.635,92.788 227.292 C 92.824 226.948,92.824 226.385,92.788 226.042 C 92.752 225.698,92.723 225.979,92.723 226.667 M280.575 228.875 L 279.917 229.583 280.625 228.925 C 281.284 228.312,281.410 228.167,281.284 228.167 C 281.257 228.167,280.938 228.485,280.575 228.875 M93.205 233.500 C 93.205 233.821,93.240 233.952,93.282 233.792 C 93.323 233.631,93.323 233.369,93.282 233.208 C 93.240 233.048,93.205 233.179,93.205 233.500 M247.875 254.583 C 247.566 254.934,247.622 255.030,248.000 254.795 C 248.183 254.680,248.333 254.530,248.333 254.460 C 248.333 254.261,248.104 254.323,247.875 254.583 M222.542 275.172 C 222.335 275.255,222.173 275.419,222.180 275.536 C 222.190 275.704,222.211 275.705,222.277 275.542 C 222.323 275.427,222.463 275.333,222.587 275.333 C 222.712 275.333,222.860 275.258,222.917 275.167 C 223.036 274.973,223.035 274.973,222.542 275.172 M101.354 276.337 C 101.606 277.083,101.748 277.228,101.595 276.583 C 101.530 276.308,101.405 276.010,101.317 275.920 C 101.229 275.831,101.246 276.018,101.354 276.337 M104.000 283.712 C 104.000 283.951,104.078 284.195,104.173 284.254 C 104.287 284.324,104.308 284.199,104.233 283.889 C 104.080 283.250,104.000 283.190,104.000 283.712 M207.917 288.000 C 207.751 288.183,207.653 288.333,207.699 288.333 C 207.745 288.333,207.955 288.183,208.167 288.000 C 208.378 287.817,208.476 287.667,208.385 287.667 C 208.293 287.667,208.083 287.817,207.917 288.000 M175.500 318.008 L 175.083 318.342 175.542 318.144 C 175.794 318.036,176.000 317.884,176.000 317.807 C 176.000 317.616,175.977 317.626,175.500 318.008 M145.375 326.955 C 145.719 326.991,146.281 326.991,146.625 326.955 C 146.969 326.919,146.688 326.889,146.000 326.889 C 145.313 326.889,145.031 326.919,145.375 326.955 M149.875 326.955 C 150.219 326.991,150.781 326.991,151.125 326.955 C 151.469 326.919,151.188 326.889,150.500 326.889 C 149.813 326.889,149.531 326.919,149.875 326.955 " stroke="none" fill="#fc9c0c" fill-rule="evenodd"></path></g></svg>